<?xml version="1.0" standalone="no"?>
<!DOCTYPE svg PUBLIC "-//W3C//DTD SVG 1.1//EN" "http://www.w3.org/Graphics/SVG/1.1/DTD/svg11.dtd" >
<svg xmlns="http://www.w3.org/2000/svg" xmlns:xlink="http://www.w3.org/1999/xlink" version="1.1" viewBox="-10 0 266 256">
   <path fill="currentColor"
d="M99 10q-1 -1 1 -1q30 8 34 14q3 2 0 5q0 3 -15 -2h-2q-2 -1 -3 0q-3 1 -11 3q-2 -1 0 -2q4 -2 7 -6q1 -1 -2 -4q-3 -1 -9 -7zM164 24q9 -3 9 -1q3 1 7 3q5 1 6 4q2 1 0 3q-1 1 -3 1q-7 -5 -25 0q-32 6 -45 15q-16 7 -31 22q-1 1 0 2v1q1 0 2 1l4 2h1q3 1 3 3q-1 2 -3 4
q-4 -1 -12 32q-19 86 -50 122q-4 3 -2 -2q37 -57 52 -145q2 -8 -3 -8q-3 0 -2 -3q1 -8 6 -11q3 -1 6 -4q2 -2 7 -5q5 -4 16 -12q3 -2 -1 -1q-14 1 -32 6q-1 0 -3 1q-9 3 -12 2q-9 0 -15 -2q-3 0 2 -2q21 -1 73 -13q29 -7 41 -12v-1q1 -2 4 -2zM165 49q7 -4 9 -1q5 3 5 5
q1 1 -4 2q-9 1 -51 28q-4 2 -2 -1q29 -21 40 -28q3 -1 -1 -1q-12 2 -35 14q-5 3 -7 7l-1 1q-1 4 -4 3q-4 1 -5 -12q-1 -4 3 -6q2 -3 1 1q-1 5 3 5q11 -4 20 -8q19 -8 29 -9zM137 91q-10 3 -25 6q1 0 2 1l2 2q3 -1 4 10q2 -1 9 -3q7 -3 9 -3q-1 -7 -1 -13zM169 102
q-8 1 -25 6v13q16 -3 25 -6q6 -6 6 -10q-1 -4 -6 -3zM138 109l-12 4q-4 1 -6 2v11q3 -1 9 -2q6 -2 9 -2v-13zM166 121q-14 2 -22 5q-1 2 0 9v3q3 -1 8 -5q8 -6 14 -12zM138 126q-10 2 -18 6v12q3 -1 8 -2q8 -2 10 -3v-13zM137 203l3 3l1 2q3 3 2 0q-1 -14 -3 -46
q-1 -13 -1 -18q-2 0 -6 2q-5 1 -7 2q4 3 2 4q1 0 0 0q-2 7 -8 14q0 28 1 37q1 5 1 10q-2 1 -2 0q-6 -9 -5 -12q0 -1 1 -4v-2v-24q-20 21 -35 30q-3 2 -1 -1q21 -17 35 -38q2 -7 0 -11q-11 5 -15 7q-3 1 -4 1q-3 0 -7 -5q-1 -1 1 -1t12 -3q8 -3 13 -4v-13q-2 1 -7 3
q-12 4 -20 7q-5 2 -13 -2q-4 -2 0 -2q5 0 12 -2t17 -5q7 -3 11 -4v-11q-13 5 -24 3q-3 -2 0 -2q9 0 24 -5q0 -7 -2 -10q-1 -2 -2 -3q0 -2 -1 -2q-4 0 -9 -1q-2 -1 1 -2q-4 1 1 0q2 0 5 -1q18 -4 28 -8q0 -3 -1 -7q0 -3 7 5q1 0 3 -1q1 0 2 -1v-1q1 -2 4 -2h3q6 -2 13 -2
q4 0 3 1v1q-1 2 -5 3q-1 0 -3 1t-4 1q-7 3 -15 6v13q4 -1 12 -2q14 -2 18 -3q3 -2 5 -1q8 6 13 14q1 0 6 -1h4q3 -5 6 -4q6 1 15 4q3 1 5 2t0 3q-2 3 -8 1q-14 -4 -41 3q-3 2 -7 6q-8 7 -16 11q3 0 8 -1q6 0 9 -1q6 -2 8 3q2 2 -7 3q-13 1 -29 4q6 22 34 41l1 1q9 6 18 6
q20 1 41 8q2 2 -2 2q-21 -3 -36 -1q-7 0 -13 -3q-26 -19 -43 -42q2 64 8 72q1 1 1 3q2 4 1 4q-2 3 -4 0q-14 -14 -14 -31q0 -4 1 -1z" />
</svg>
