<?xml version="1.0" encoding="utf-8"?><!DOCTYPE svg PUBLIC "-//W3C//DTD SVG 1.1//EN" "http://www.w3.org/Graphics/SVG/1.1/DTD/svg11.dtd"><svg version="1.1" xmlns="http://www.w3.org/2000/svg" width="128" height="128" viewBox="0 0 128 128"><g transform="scale(0.128,0.128)"><g><rect fill="#D1D5DA" width="1000" height="1000" /></g><g transform="translate(0,0)"><g transform="scale(1,-1) translate(0,-893)"><path stroke="none" fill="#000000" d="M589 718T569 722Q546 726 523 722Q510 720 457 708L497 748L466 779Q454 795 448 824Q461 819 473 811L489 801Q499 797 553 783Q579 776 593 754Q612 732 600 721Q589 718 569 722ZM828 645T789 648Q659 657 613 656Q534 653 387 621Q339 610 301 625Q276 634 270 644V652Q313 652 359 660Q581 696 565 695L750 707Q770 708 797 695Q821 679 824 664Q828 645 789 648ZM527 610Q496 579 484 540Q481 528 473 517Q437 512 422 560Q413 587 426 599L434 606L461 587L527 610ZM934 285T902 290Q832 301 820 302H766L750 290Q726 272 704 301L645 294V239Q678 244 699 251L695 267Q710 261 742 255Q761 251 758 235Q750 220 715 212Q678 204 645 200L647 194L704 132Q743 93 834 40L889 10Q882 -2 846 -14Q797 -28 779 -21Q762 -17 749 -3Q703 47 682 81L645 134V63Q645 -26 637 -50Q626 -82 617 -73Q610 -66 597 -40Q584 -15 576 -8Q590 6 598 28V200Q603 201 510 190Q514 57 505 -21Q496 -58 484 -58Q465 -49 457 -19L461 26Q464 58 463 104Q430 65 372 19Q306 -33 243 -40Q267 -24 304 6Q411 96 469 178V188Q459 188 437 192Q412 199 407 204L395 220H469Q473 266 473 286Q443 282 406 274Q365 267 332 251Q308 244 273 286V290Q405 306 473 313L475 366L410 358Q394 365 383 393Q468 406 474 406L475 444H479L503 410Q557 418 547 415Q609 467 641 493Q529 467 520 466Q445 454 418 466Q400 481 391 493Q462 493 523 505Q561 512 586 540Q618 577 637 610L625 634L633 638Q664 638 691 614Q714 595 695 583L574 513L652 520L707 536Q718 539 723 544Q729 544 738 540Q777 525 762 505Q742 493 695 481Q630 466 562 415Q650 431 664 431Q711 431 750 419Q785 402 789 376Q789 360 777 333Q818 333 852 341Q863 349 875 349L887 345Q937 329 934 298Q934 285 902 290ZM248 223T184 142Q140 85 66 56Q124 112 145 149Q189 227 211 356Q224 433 215 481Q211 502 191 560H195Q244 543 270 485Q282 458 270 380Q248 223 184 142ZM719 380Q667 396 598 381L613 364Q637 346 643 324Q634 324 706 329Q719 350 719 368V380ZM587 368T582 380L508 370V313L554 318Q583 320 596 322Q587 368 582 380ZM598 295Q581 295 549 291Q517 286 508 286V220L598 227V295Z" /></g></g></g></svg>