<?xml version="1.0" encoding="utf-8"?><!DOCTYPE svg PUBLIC "-//W3C//DTD SVG 1.1//EN" "http://www.w3.org/Graphics/SVG/1.1/DTD/svg11.dtd"><svg version="1.1" xmlns="http://www.w3.org/2000/svg" width="128" height="128" viewBox="0 0 128 128"><g transform="scale(0.128,0.128)"><g><rect fill="#FFFFFF" width="0" height="0" /></g><g transform="translate(0,0)"><g transform="scale(1,-1) translate(0,-893)"><path stroke="none" fill="#000000" d="M783 649T773 641Q764 636 749 636Q728 635 725 634Q712 631 663 628Q625 626 604 614Q592 602 576 576Q558 546 549 535Q510 523 496 531Q495 537 502 548Q509 560 510 566Q514 572 525 620L464 617Q404 598 410 604Q411 586 425 548Q418 539 393 535Q401 534 374 561Q370 563 364 570Q359 576 353 575Q346 582 336 579L318 573Q278 560 268 549L247 535Q243 538 222 576Q223 580 217 592Q211 601 218 604Q236 613 265 619Q303 627 312 630Q315 629 325 634Q335 639 333 641Q334 646 331 652Q328 658 328 662Q311 745 311 770Q330 770 361 762L410 751Q404 672 407 662L540 666Q554 707 563 721Q567 738 580 765Q594 795 598 808Q616 818 641 804Q677 782 681 781L691 774L702 761Q688 755 643 700Q642 695 637 687Q630 678 629 673Q675 672 763 690Q765 694 768 692Q774 688 773 688Q781 677 783 659Q783 649 773 641ZM969 95Q792 95 802 93Q798 96 754 102Q724 107 733 135Q726 212 654 234Q646 231 647 219Q649 204 647 200Q650 165 650 101Q650 40 652 11Q652 0 655 -21Q655 -56 646 -63Q649 -64 578 -30Q569 -23 553 -14Q535 -5 528 0Q501 18 490 48Q496 53 511 45Q529 35 533 35Q572 25 585 31Q596 36 594 58Q599 86 596 133Q592 196 592 212L589 232Q576 220 553 189Q531 159 514 145Q501 131 482 117Q458 101 447 91Q438 88 414 76Q392 65 381 63Q376 65 356 67Q339 69 334 74Q424 116 470 166L448 182Q428 195 425 218Q422 221 414 222Q406 223 403 226Q325 214 303 205Q266 198 265 197Q208 112 199 75Q196 66 186 72L135 115Q155 130 244 222Q215 262 200 349Q188 354 171 345Q142 331 104 347Q97 356 111 356Q117 357 143 383Q155 388 205 429L287 500Q309 519 318 533Q343 546 356 540Q370 516 406 509Q461 498 465 496Q472 480 472 483Q402 424 399 419Q450 426 465 417Q475 421 512 456Q535 479 576 509L642 558Q642 556 654 568Q684 569 724 529Q729 520 726 515Q632 465 640 473L629 462L648 452Q661 446 665 439Q654 415 656 392Q666 388 697 393Q728 402 739 411Q749 424 756 420Q761 412 773 399L790 378Q809 353 803 329Q685 334 658 323L659 313Q737 211 878 163Q941 128 959 110L969 95ZM422 143T406 131Q389 134 351 166Q356 205 361 212Q364 212 368 214Q373 216 376 216Q383 203 400 181Q418 159 423 148Q422 143 406 131ZM336 113T322 109Q303 112 269 141Q269 144 273 155Q276 164 275 171L280 190Q283 200 292 202Q296 203 299 197Q303 191 306 191Q316 163 338 132Q336 113 322 109ZM586 439Q580 446 569 433Q514 417 493 404Q514 387 514 390Q502 366 507 350Q519 348 588 373Q592 384 588 422L586 439ZM559 288Q540 293 502 272L485 292Q483 282 475 266Q467 249 465 241L494 201L507 207Q522 218 552 264L559 288ZM431 379T420 384Q409 389 398 383Q390 380 384 346Q411 346 417 347Q419 341 417 329Q415 316 416 311Q411 308 397 305Q385 302 380 297Q375 286 375 266Q368 271 417 268Q442 293 434 367Q431 379 420 384ZM356 488T342 489Q261 424 240 398L225 379H238Q245 385 263 390Q284 395 290 398Q345 441 361 473Q356 488 342 489ZM334 289Q339 286 293 286Q293 292 291 303Q288 316 288 320Q314 332 329 334Q335 344 333 372L316 373Q277 359 269 347Q262 289 288 247Q294 244 303 247Q314 249 318 249Q335 255 332 255Q331 262 333 272L334 289Z" /></g></g></g></svg>