<?xml version="1.0" encoding="utf-8"?><!DOCTYPE svg PUBLIC "-//W3C//DTD SVG 1.1//EN" "http://www.w3.org/Graphics/SVG/1.1/DTD/svg11.dtd"><svg version="1.1" xmlns="http://www.w3.org/2000/svg" width="128" height="128" viewBox="0 0 128 128"><g transform="scale(0.128,0.128)"><g><rect fill="#D1D5DA" width="1000" height="1000" /></g><g transform="translate(0,0)"><g transform="scale(1,-1) translate(0,-893)"><path stroke="none" fill="#000000" d="M864 658T832 661L797 665Q722 673 664 673Q646 636 629 618Q605 591 566 591Q587 625 598 665L602 673Q500 673 422 661Q430 619 430 595L426 579H422Q402 571 387 599Q381 609 367 649Q322 640 285 630Q239 618 195 638Q164 650 148 665Q183 665 355 688Q340 733 324 747Q312 759 277 778Q327 785 371 767Q399 755 406 743Q414 735 414 704V696Q528 708 605 708L617 755Q614 774 582 794V798Q642 813 691 778Q699 775 699 767Q699 755 672 708Q719 708 789 716Q824 719 855 688Q871 672 867 665Q864 658 832 661ZM801 489T773 489Q743 486 695 474Q621 457 543 442L605 485L715 540L699 567L707 571Q757 564 789 536Q820 509 813 493Q801 489 773 489ZM946 99Q897 69 863 75Q844 79 832 99Q804 145 785 173Q756 218 715 270L718 67Q719 -11 695 -35Q681 -36 666 -7Q651 19 655 23Q666 36 672 77V278L656 255Q600 173 555 142Q520 117 488 106Q467 99 453 99Q457 90 453 83Q445 75 422 87Q360 126 332 118Q309 115 312 91L316 63Q320 38 270 63Q237 80 215 83Q188 88 172 67Q157 43 137 -11Q125 -47 102 -30Q90 -22 90 5Q90 27 94 44Q130 69 156 126V79Q176 99 203 102Q227 106 254 106Q278 106 293 118Q318 138 344 138Q367 138 422 126L441 145L453 106L484 122Q540 170 578 220Q594 241 637 310L539 282Q525 282 500 325V329H535Q594 336 672 349Q672 411 652 442L660 446Q682 446 707 435Q722 426 719 395L715 352Q779 357 816 368Q839 380 855 364L863 356Q887 337 879 317Q874 302 863 306L852 310Q811 317 723 317Q784 247 824 204Q858 169 883 153Q926 127 949 106L946 99ZM451 224T445 208Q430 161 391 173Q350 185 320 185Q315 185 277 181Q270 181 250 177Q245 172 234 157Q226 149 211 173Q204 180 199 204L184 270Q174 312 152 341Q159 339 172 333Q185 328 191 325H199L203 329L215 352Q222 363 234 368Q276 382 301 403Q325 424 379 481Q294 486 270 466Q218 426 187 407Q136 376 82 364Q134 401 180 446Q246 510 254 528Q262 545 250 575H262Q282 575 301 563Q305 559 312 548Q321 537 316 532Q312 527 289 509H379Q425 506 430 478V466Q421 449 309 388H414Q450 383 465 360Q477 342 469 306Q451 224 445 208ZM422 349T414 349Q376 357 344 353L301 349L316 337Q336 320 336 302V294Q346 294 359 298Q376 301 379 286Q383 267 367 267L336 263L332 216H395L398 220Q405 228 410 255Q414 275 414 286Q422 320 422 345Q422 349 414 349ZM301 263H277Q259 266 254 278V282Q254 286 258 286Q273 286 301 290L297 333L293 349L258 341L234 345Q206 325 215 294L242 204L301 212V263Z" /></g></g></g></svg>