<?xml version="1.0" encoding="utf-8"?><!DOCTYPE svg PUBLIC "-//W3C//DTD SVG 1.1//EN" "http://www.w3.org/Graphics/SVG/1.1/DTD/svg11.dtd"><svg version="1.1" xmlns="http://www.w3.org/2000/svg" width="128" height="128" viewBox="0 0 128 128"><g transform="scale(0.128,0.128)"><g><rect fill="#FFFFFF" width="0" height="0" /></g><g transform="translate(0,0)"><g transform="scale(1,-1) translate(0,-893)"><path stroke="none" fill="#000000" d="M333 738Q346 700 401 630Q390 612 371 597Q298 615 275 627Q255 638 265 723Q296 747 314 754Q321 757 326 751L333 738ZM681 517T685 504Q877 531 900 531Q931 466 936 452V415Q815 459 686 427Q638 415 621 387Q614 375 597 355L571 323Q543 284 553 248Q579 251 632 263Q686 275 711 279Q805 292 866 253Q897 235 906 219Q862 177 823 20Q828 23 781 19Q646 8 598 -1Q572 25 533 119Q535 113 515 157Q499 196 504 195Q497 193 441 150Q395 115 347 121L334 127Q458 246 476 277Q540 388 538 382Q544 396 546 403Q490 407 456 390L440 389Q416 428 410 468L586 496Q605 499 638 615Q665 711 670 754Q680 749 713 735Q740 723 755 713Q681 517 685 504ZM620 202T603 189Q592 138 624 81Q639 72 680 79Q687 80 701 80Q716 81 722 82Q746 84 757 99Q767 114 771 148Q776 183 769 199Q764 213 713 221Q620 202 603 189ZM408 471Q403 464 390 452Q375 438 370 432Q346 405 351 383Q353 373 422 297Q413 272 395 253Q321 272 327 272L323 266Q321 214 322 109Q322 4 320 -49Q280 -46 246 -25Q247 -19 250 -15Q255 -9 256 -7Q258 -2 259 10Q261 23 262 26Q281 160 262 259Q255 267 241 263Q225 249 175 196Q136 154 106 134Q69 134 52 140Q213 310 240 370Q240 374 243 384Q246 392 244 397Q219 410 179 396L116 373Q87 437 87 466Q88 470 104 470Q246 479 379 532Q385 526 408 483V471Z" /></g></g></g></svg>