<?xml version="1.0" encoding="utf-8"?><!DOCTYPE svg PUBLIC "-//W3C//DTD SVG 1.1//EN" "http://www.w3.org/Graphics/SVG/1.1/DTD/svg11.dtd"><svg version="1.1" xmlns="http://www.w3.org/2000/svg" width="128" height="128" viewBox="0 0 128 128"><g transform="scale(0.128,0.128)"><g><rect fill="#D1D5DA" width="1000" height="1000" /></g><g transform="translate(0,0)"><g transform="scale(1,-1) translate(0,-893)"><path stroke="none" fill="#000000" d="M582 743H586Q631 755 668 704Q683 685 672 653L645 571L687 575Q775 583 812 579Q852 576 879 567Q914 556 922 540L930 520Q933 497 926 493Q922 490 895 493Q865 497 797 485L848 528Q766 532 715 528Q645 521 637 513Q637 503 621 474Q607 447 602 435Q541 308 496 255Q450 201 410 196Q395 196 375 216Q412 211 445 255Q506 332 570 489L574 505Q537 495 504 481Q470 465 457 470Q427 480 410 517V524Q464 524 578 556H582Q604 612 609 638Q618 678 598 704L574 735L582 743ZM86 517Q132 514 195 532Q250 547 297 567Q335 583 359 563Q376 551 383 524L348 497L277 407Q289 392 289 384V380H293Q319 375 348 364Q371 357 387 376V341Q387 315 395 298Q402 279 391 274Q382 271 363 294L289 368V17Q289 -25 277 -30Q258 -37 242 -15Q245 -24 230 9Q218 35 223 40Q234 81 234 75Q234 136 238 181Q242 243 246 368L230 349Q156 262 148 255Q111 225 62 208L74 220Q136 282 250 458L293 524Q222 499 188 478Q149 454 129 462Q97 474 90 509L86 517ZM223 790Q277 753 301 747Q360 730 375 688Q383 665 367 661Q360 657 336 661Q325 665 309 665Q292 665 246 657H242L273 688L242 720Q207 755 219 786V790H223ZM558 232T535 263H543Q551 263 574 243Q591 283 602 294Q612 305 645 321Q749 357 824 317Q882 286 855 220Q843 189 813 138Q803 120 793 106L801 103Q830 92 832 79Q837 57 828 48Q820 43 809 48Q763 56 707 56H688Q669 56 633 52H629V13Q618 -13 602 9Q586 29 582 48Q578 68 578 83Q578 110 566 185Q558 232 535 263ZM617 87L668 95Q704 101 730 118Q754 135 773 181Q804 254 801 263L797 267Q795 269 793 270Q766 282 738 282L656 267Q638 263 605 274L594 224L617 87Z" /></g></g></g></svg>