<?xml version="1.0" encoding="UTF-8"?>
<svg xmlns="http://www.w3.org/2000/svg" xmlns:xlink="http://www.w3.org/1999/xlink" width="182pt" height="182pt" viewBox="0 0 182 182" version="1.1">
<g id="surface1">
<path style=" stroke:none;fill-rule:nonzero;fill:rgb(0%,0%,0%);fill-opacity:1;" d="M 126.058594 0.0859375 C 125.859375 0.113281 125.21875 0.214844 124.632812 0.296875 C 121.234375 0.769531 117.277344 2.390625 113.59375 4.804688 C 109.992188 7.179688 107.289062 9.425781 101.941406 14.503906 C 97.828125 18.398438 96.152344 19.878906 94.230469 21.3125 C 86.84375 26.800781 76.34375 30.667969 59.472656 34.125 L 57.253906 34.578125 L 55.984375 33.753906 C 48.117188 28.679688 39.894531 24.941406 30.84375 22.324219 C 28.070312 21.511719 24.058594 20.589844 21.910156 20.246094 C 20.132812 19.976562 16.53125 19.933594 15.222656 20.175781 C 9.589844 21.214844 6.542969 25.066406 5.832031 32.0625 C 5.589844 34.308594 5.71875 39.015625 6.117188 42.796875 C 7.457031 55.835938 10.257812 67.425781 15.011719 79.695312 C 16.859375 84.472656 17.214844 85.78125 17.214844 87.773438 C 17.203125 89.664062 16.546875 91.15625 14.839844 93.148438 C 14.46875 93.585938 13.175781 94.980469 11.992188 96.246094 C 10.796875 97.511719 9.246094 99.316406 8.550781 100.242188 C 3.898438 106.414062 1.222656 113.847656 0.257812 123.277344 C 0.015625 125.609375 0.015625 133.414062 0.257812 136.003906 C 0.839844 142.34375 1.707031 147.476562 3.5 155.339844 C 4.566406 159.960938 4.667969 160.5 4.921875 162.308594 C 5.179688 164.15625 5.578125 165.109375 6.386719 165.875 C 6.859375 166.332031 8.367188 167.140625 8.492188 167.011719 C 8.523438 167 8.28125 166.21875 7.96875 165.277344 C 3.257812 151.332031 1.324219 134.097656 3.058594 121.640625 C 3.957031 115.257812 5.621094 110.351562 8.238281 106.484375 C 9.433594 104.707031 10.441406 103.554688 11.78125 102.460938 C 17.714844 97.625 25.410156 97.457031 34.429688 101.960938 C 44.832031 107.167969 51.917969 115.144531 53.851562 123.84375 C 54.222656 125.523438 54.292969 129.175781 53.992188 130.96875 C 52.839844 137.851562 48.246094 143.011719 41.714844 144.773438 C 39.992188 145.246094 36.410156 145.300781 34.316406 144.902344 C 27.800781 143.652344 22.109375 139.085938 19.121094 132.71875 C 18.765625 131.9375 18.238281 130.855469 17.984375 130.285156 C 17.074219 128.367188 15.566406 127.527344 14.796875 128.507812 C 14.085938 129.390625 14.738281 132.375 16.304688 135.363281 C 17.484375 137.636719 18.78125 139.34375 20.914062 141.492188 C 24.160156 144.746094 27.417969 146.59375 31.65625 147.5625 C 33.621094 148.015625 35.339844 148.160156 40.832031 148.300781 C 46.15625 148.445312 47.363281 148.570312 49.414062 149.226562 C 51.046875 149.75 52.515625 150.460938 54.050781 151.488281 C 55.941406 152.753906 57.210938 153.832031 60.824219 157.257812 C 64.394531 160.644531 65.703125 161.765625 67.496094 162.976562 C 69.175781 164.097656 70.613281 164.808594 72.433594 165.40625 C 73.769531 165.863281 75.109375 166.144531 81.097656 167.285156 C 86.84375 168.394531 90.003906 170.070312 92.125 173.171875 L 92.777344 174.136719 L 92.421875 175.402344 C 91.46875 178.828125 91.042969 180.847656 91.183594 181.132812 C 91.355469 181.445312 92.707031 182 93.332031 182 C 94.160156 182 94.273438 181.757812 95.183594 178.117188 C 96.40625 173.140625 96.863281 171.90625 98.113281 170.042969 C 99.679688 167.710938 101.101562 165.960938 103.066406 164 C 108.671875 158.425781 115.613281 154.8125 122.457031 153.917969 C 131.152344 152.78125 139.175781 156.777344 143.542969 164.441406 C 145.421875 167.738281 146.332031 171.292969 146.230469 175.003906 L 146.1875 176.882812 L 146.617188 177.050781 C 147.980469 177.621094 149.761719 176.667969 150.328125 175.074219 C 150.585938 174.335938 150.570312 172.105469 150.300781 170.554688 C 149.632812 166.6875 147.128906 161.480469 144.167969 157.828125 C 143.300781 156.761719 141.023438 154.488281 139.617188 153.277344 L 138.863281 152.636719 L 142.21875 146.738281 C 152.277344 129.035156 153.160156 127.585938 154.511719 126.363281 C 155.847656 125.152344 157.628906 124.8125 159.308594 125.4375 C 160.417969 125.835938 161.9375 127.371094 162.59375 128.695312 C 163.960938 131.496094 163.761719 133.882812 161.695312 139.601562 C 160.046875 144.222656 159.691406 146.140625 159.820312 149.835938 C 159.933594 153.492188 160.6875 156.535156 162.335938 159.945312 C 164.457031 164.3125 167.445312 167.796875 171.273438 170.355469 C 173.023438 171.535156 174.617188 172.304688 176.664062 172.984375 C 179.226562 173.851562 180.535156 173.667969 181.472656 172.34375 L 181.902344 171.734375 L 181.871094 168.378906 C 181.816406 159.007812 179.480469 149.210938 175.15625 140.269531 C 173.691406 137.238281 172.453125 135.078125 170.519531 132.164062 C 168.554688 129.21875 167.0625 127.300781 164.03125 123.84375 C 161.257812 120.675781 160.117188 119.109375 159.191406 117.234375 C 158.253906 115.300781 157.925781 113.863281 157.925781 111.617188 C 157.925781 109.34375 158.15625 108.019531 159.265625 103.613281 C 160.742188 97.824219 161.269531 94.613281 161.46875 90.261719 C 161.78125 83.136719 160.757812 76.609375 158.070312 68.789062 C 157.597656 67.410156 156.246094 63.871094 155.066406 60.898438 C 149.886719 47.917969 149.21875 45.085938 148.609375 33.414062 C 148.265625 26.703125 147.996094 23.6875 147.527344 20.902344 C 146.402344 14.203125 143.957031 8.929688 140.296875 5.246094 C 137.667969 2.617188 134.933594 1.09375 131.433594 0.339844 C 130.4375 0.128906 126.796875 -0.0429688 126.058594 0.0859375 Z M 130.46875 5.617188 C 136.414062 7.804688 141.335938 15.34375 143.402344 25.394531 C 144.9375 32.902344 144.609375 40.152344 142.417969 46.550781 C 141.949219 47.960938 141.878906 48.769531 142.207031 49.394531 C 142.320312 49.609375 143.015625 50.605469 143.757812 51.601562 C 151.78125 62.433594 154.3125 68.703125 155.847656 81.617188 C 156.71875 88.882812 156.617188 95.265625 155.492188 103.371094 C 154.855469 107.992188 153.574219 113.378906 152.71875 115.042969 C 152.621094 115.257812 152.007812 116.949219 151.367188 118.8125 C 150.742188 120.675781 149.902344 122.90625 149.519531 123.773438 C 146.757812 129.929688 142.40625 135.105469 136.117188 139.671875 C 132.785156 142.101562 129.757812 143.808594 123.554688 146.75 C 108.628906 153.832031 102.496094 155.980469 95.125 156.703125 C 92.636719 156.945312 87.101562 156.789062 84.65625 156.421875 C 79.390625 155.597656 73.386719 153.847656 66.941406 151.257812 C 60.425781 148.644531 53.722656 145.300781 53.125 144.390625 C 52.785156 143.867188 52.96875 143.4375 53.910156 142.628906 C 54.378906 142.214844 55.089844 141.433594 55.503906 140.863281 C 55.914062 140.296875 56.539062 139.457031 56.882812 138.988281 C 57.652344 137.964844 58.375 136.457031 58.6875 135.292969 C 59.015625 134.097656 59.117188 131.152344 58.917969 129.449219 C 58.660156 127.441406 58.148438 125.109375 57.265625 121.96875 C 55.53125 115.726562 54.164062 112.753906 51.773438 109.910156 C 51.347656 109.398438 50.679688 108.574219 50.292969 108.0625 C 49.894531 107.550781 49.183594 106.699219 48.703125 106.171875 C 47.335938 104.679688 47.335938 104.378906 48.714844 102.789062 C 49.214844 102.203125 50.136719 101.136719 50.777344 100.398438 C 53.894531 96.785156 56.3125 93.089844 60.382812 85.695312 C 64.324219 78.558594 65.730469 73.324219 66.714844 62.207031 C 67.28125 55.894531 67.238281 53.234375 66.527344 50.417969 C 65.902344 47.972656 64.210938 44.191406 63.085938 42.714844 C 62.386719 41.804688 62.175781 41.320312 62.175781 40.59375 C 62.175781 40.011719 62.246094 39.871094 62.816406 39.257812 C 64.167969 37.808594 66.742188 36.871094 74.410156 35.007812 C 79.816406 33.683594 87.1875 32.488281 91.128906 32.289062 C 92.578125 32.21875 93.261719 32.121094 93.644531 31.933594 C 94.613281 31.464844 96.320312 29.488281 98.242188 26.617188 C 99.253906 25.109375 100.589844 23.246094 101.214844 22.492188 C 102.695312 20.714844 106.636719 16.707031 108.441406 15.101562 C 113.566406 10.605469 120.976562 6.269531 125.160156 5.347656 C 126.710938 4.992188 129.128906 5.117188 130.46875 5.617188 Z M 22.082031 35.191406 C 23.902344 35.503906 25.78125 36.171875 27.742188 37.210938 C 33.988281 40.496094 36.765625 43.664062 37.5625 48.484375 C 38.015625 51.160156 37.132812 53.960938 34.941406 56.875 C 33.191406 59.207031 28.9375 62.933594 26.890625 63.941406 C 24.429688 65.148438 22.578125 64.082031 20.175781 60.058594 C 18.097656 56.578125 16.546875 53.179688 15.59375 50.007812 C 14.96875 47.945312 13.859375 43.011719 13.660156 41.460938 C 13.246094 38.148438 14.796875 35.6875 17.640625 35.132812 C 18.667969 34.933594 20.773438 34.964844 22.082031 35.191406 Z M 22.082031 35.191406 "/>
<path style=" stroke:none;fill-rule:nonzero;fill:rgb(0%,0%,0%);fill-opacity:1;" d="M 125.929688 13.804688 C 124.917969 13.976562 122.855469 14.671875 121.832031 15.199219 C 118.144531 17.0625 114.21875 20.757812 110.933594 25.496094 C 108.984375 28.28125 108.273438 29.875 108.273438 31.453125 C 108.273438 33.328125 109.253906 34.382812 112.183594 35.617188 C 112.894531 35.917969 115.769531 37.308594 118.574219 38.71875 C 121.390625 40.109375 124.078125 41.417969 124.546875 41.589844 C 127.066406 42.527344 129.414062 42.613281 131.109375 41.832031 C 134.253906 40.351562 135.886719 35.945312 135.6875 29.433594 C 135.605469 26.730469 135.390625 25.253906 134.464844 21.113281 C 133.839844 18.328125 133.683594 17.773438 133.097656 16.648438 C 131.890625 14.261719 129.328125 13.25 125.929688 13.804688 Z M 126.839844 18.667969 C 127.75 19.621094 128.277344 21.257812 129.386719 26.445312 C 130.054688 29.617188 130.339844 32.035156 130.367188 34.777344 C 130.394531 36.855469 130.367188 37.109375 130.125 37.382812 C 129.597656 37.964844 128.503906 37.722656 125.359375 36.386719 C 122.371094 35.105469 119.925781 33.640625 117.164062 31.496094 C 114.84375 29.6875 114.40625 28.820312 115.144531 27.457031 C 115.671875 26.460938 118.785156 22.480469 120.125 21.085938 C 122.085938 19.054688 123.824219 18.070312 125.472656 18.058594 C 126.199219 18.058594 126.285156 18.101562 126.839844 18.667969 Z M 126.839844 18.667969 "/>
<path style=" stroke:none;fill-rule:nonzero;fill:rgb(0%,0%,0%);fill-opacity:1;" d="M 126.570312 81.402344 C 126.097656 81.585938 125.003906 82.226562 124.152344 82.796875 C 123.28125 83.378906 122.015625 84.21875 121.347656 84.660156 C 119.953125 85.554688 118.714844 86.820312 118.21875 87.828125 C 117.71875 88.851562 117.675781 90.304688 118.117188 91.128906 C 118.628906 92.09375 119.355469 92.59375 120.292969 92.679688 C 121.046875 92.734375 121.105469 92.71875 121.5625 92.222656 C 121.886719 91.882812 122.242188 91.199219 122.640625 90.191406 C 123.625 87.628906 124.335938 86.777344 126.339844 85.839844 C 127.949219 85.070312 128.859375 85.242188 130.523438 86.621094 C 130.980469 87.003906 131.5625 87.417969 131.804688 87.558594 C 132.402344 87.871094 133.8125 87.871094 134.421875 87.542969 C 135.40625 87.019531 135.730469 85.710938 135.175781 84.617188 C 134.75 83.792969 133.425781 82.667969 132.117188 82.042969 C 129.898438 80.976562 128.105469 80.761719 126.570312 81.402344 Z M 126.570312 81.402344 "/>
<path style=" stroke:none;fill-rule:nonzero;fill:rgb(0%,0%,0%);fill-opacity:1;" d="M 142.347656 95.050781 C 140.457031 95.378906 135.875 96.886719 134.28125 97.695312 C 133.613281 98.039062 133.171875 98.605469 133.171875 99.132812 C 133.171875 99.6875 133.625 100.554688 134.167969 101.011719 C 134.890625 101.605469 135.574219 101.523438 137.480469 100.597656 C 138.875 99.914062 139.273438 99.789062 140.640625 99.589844 C 141.863281 99.417969 142.433594 99.246094 143.257812 98.847656 C 144.46875 98.238281 144.566406 98.066406 144.609375 96.589844 C 144.625 95.734375 144.582031 95.523438 144.339844 95.292969 C 143.941406 94.894531 143.484375 94.851562 142.347656 95.050781 Z M 142.347656 95.050781 "/>
<path style=" stroke:none;fill-rule:nonzero;fill:rgb(0%,0%,0%);fill-opacity:1;" d="M 70.570312 98.621094 C 70.371094 98.648438 69.828125 98.75 69.359375 98.835938 C 67.324219 99.191406 65.246094 100.695312 63.824219 102.84375 C 61.746094 106 61.589844 107.238281 63.171875 108.304688 C 63.796875 108.746094 64.679688 108.730469 65.320312 108.304688 C 65.617188 108.105469 66.015625 107.59375 66.371094 106.925781 C 67.113281 105.546875 69.019531 103.570312 70.15625 103.027344 C 71.792969 102.246094 73.230469 102.277344 75.546875 103.15625 C 77.097656 103.738281 77.824219 103.78125 78.691406 103.328125 C 79.886719 102.6875 79.972656 101.777344 78.949219 100.613281 C 78.082031 99.617188 77.339844 99.316406 74.835938 98.90625 C 73.515625 98.679688 71.125 98.523438 70.570312 98.621094 Z M 70.570312 98.621094 "/>
<path style=" stroke:none;fill-rule:nonzero;fill:rgb(0%,0%,0%);fill-opacity:1;" d="M 142.917969 103.613281 C 138.191406 104.890625 138.136719 104.921875 137.636719 105.433594 C 137.15625 105.957031 136.941406 106.667969 137.15625 107.066406 C 137.226562 107.210938 137.496094 107.394531 137.738281 107.480469 C 138.5625 107.765625 139.359375 107.664062 140.953125 107.054688 C 142.363281 106.511719 142.617188 106.46875 144.125 106.414062 C 146.203125 106.34375 147.597656 106.113281 147.867188 105.816406 C 148.4375 105.175781 148.324219 104.039062 147.613281 103.300781 C 147.199219 102.859375 147.070312 102.800781 146.460938 102.816406 C 146.074219 102.828125 144.480469 103.183594 142.917969 103.613281 Z M 142.917969 103.613281 "/>
<path style=" stroke:none;fill-rule:nonzero;fill:rgb(0%,0%,0%);fill-opacity:1;" d="M 103.335938 104.152344 C 99.621094 104.820312 96.320312 106.925781 94.472656 109.78125 C 93.574219 111.175781 93.375 112.425781 93.886719 113.535156 C 94.484375 114.816406 95.765625 115.554688 98.414062 116.109375 C 102.210938 116.90625 102.910156 117.164062 103.136719 117.773438 C 103.40625 118.46875 104.019531 123.304688 104.019531 124.742188 C 104.019531 126.105469 103.960938 126.40625 103.492188 127.828125 C 102.667969 130.328125 101.742188 131.496094 99.992188 132.304688 C 97.246094 133.558594 93.832031 132.703125 90.941406 130.042969 C 90.21875 129.390625 89.40625 128.765625 89.136719 128.679688 C 88.382812 128.421875 87.742188 128.792969 87.273438 129.761719 C 86.945312 130.441406 86.902344 130.65625 86.960938 131.523438 C 87.074219 133.128906 87.984375 134.308594 89.847656 135.25 C 92.09375 136.402344 94.5 136.855469 97.585938 136.742188 C 101.65625 136.597656 103.71875 135.5625 105.027344 133.042969 C 106.125 130.941406 107.289062 129.6875 108.472656 129.375 C 108.984375 129.234375 109.167969 129.25 109.980469 129.546875 C 110.820312 129.859375 111.175781 129.886719 113.679688 129.929688 C 115.203125 129.960938 117.277344 129.917969 118.289062 129.832031 C 120.507812 129.648438 121.191406 129.375 122.484375 128.167969 C 122.984375 127.710938 124.007812 126.816406 124.746094 126.191406 C 126.554688 124.683594 126.710938 124.371094 127.082031 121.484375 C 127.253906 120.175781 127.324219 118.996094 127.265625 118.628906 C 127.152344 117.84375 126.539062 117.121094 125.800781 116.90625 C 125.046875 116.679688 123.59375 116.691406 123.027344 116.933594 C 122.144531 117.304688 122.03125 117.574219 121.917969 119.480469 C 121.789062 121.414062 121.390625 123.207031 120.921875 123.875 C 120.492188 124.472656 119.484375 125.082031 118.304688 125.453125 C 117.035156 125.851562 114.519531 125.878906 113.109375 125.507812 C 110.960938 124.941406 109.253906 123.6875 108.785156 122.351562 C 108.671875 121.984375 108.5 121.03125 108.402344 120.234375 C 108.101562 117.546875 108.542969 115.726562 110.234375 112.640625 C 111.886719 109.667969 112.15625 109.015625 112.226562 107.792969 C 112.269531 106.78125 112.257812 106.667969 111.859375 106.042969 C 111.03125 104.765625 108.640625 103.9375 105.855469 103.953125 C 105.027344 103.953125 103.90625 104.054688 103.335938 104.152344 Z M 103.335938 104.152344 "/>
<path style=" stroke:none;fill-rule:nonzero;fill:rgb(0%,0%,0%);fill-opacity:1;" d="M 139.828125 114.617188 C 139.203125 114.800781 138.578125 115.46875 138.578125 115.96875 C 138.578125 116.535156 138.933594 117.21875 139.445312 117.644531 C 139.902344 118.03125 139.957031 118.042969 140.855469 117.929688 C 142.875 117.675781 143.414062 117.757812 144.867188 118.484375 C 146.316406 119.210938 146.859375 119.296875 147.613281 118.925781 C 148.222656 118.640625 149.53125 117.261719 149.53125 116.90625 C 149.53125 116.109375 148.125 115.328125 145.875 114.875 C 144.238281 114.546875 140.625 114.390625 139.828125 114.617188 Z M 139.828125 114.617188 "/>
<path style=" stroke:none;fill-rule:nonzero;fill:rgb(0%,0%,0%);fill-opacity:1;" d="M 69.074219 116.464844 C 66.640625 117.304688 63.613281 119.140625 62.273438 120.574219 C 61.476562 121.429688 61.050781 122.324219 61.222656 122.765625 C 61.378906 123.175781 62.03125 123.320312 62.84375 123.164062 C 63.8125 122.964844 70.027344 120.375 70.894531 119.808594 C 71.863281 119.167969 71.976562 117.417969 71.109375 116.480469 C 70.726562 116.082031 70.199219 116.082031 69.074219 116.464844 Z M 69.074219 116.464844 "/>
<path style=" stroke:none;fill-rule:nonzero;fill:rgb(0%,0%,0%);fill-opacity:1;" d="M 68.71875 125.507812 C 68.519531 125.539062 67.867188 125.722656 67.269531 125.921875 C 64.492188 126.832031 62.429688 129.121094 62.886719 130.796875 C 63.085938 131.539062 63.769531 132.332031 64.324219 132.449219 C 64.933594 132.589844 66.101562 131.976562 66.957031 131.082031 C 67.339844 130.683594 67.78125 130.285156 67.9375 130.199219 C 68.109375 130.117188 68.945312 130.042969 69.929688 130.03125 C 71.410156 130.03125 71.722656 129.972656 72.234375 129.703125 C 73.230469 129.175781 73.484375 128.382812 73.003906 127.328125 C 72.347656 125.878906 70.695312 125.183594 68.71875 125.507812 Z M 68.71875 125.507812 "/>
<path style=" stroke:none;fill-rule:nonzero;fill:rgb(0%,0%,0%);fill-opacity:1;" d="M 70.496094 134.636719 C 69.84375 134.9375 68.988281 135.730469 67.269531 137.695312 C 65.605469 139.558594 65.390625 140.410156 66.328125 141.335938 C 67.59375 142.601562 70.042969 141.917969 71.367188 139.914062 C 71.863281 139.171875 72.234375 138.960938 73.414062 138.703125 C 75.390625 138.292969 75.976562 137.824219 75.976562 136.628906 C 75.976562 135.816406 75.71875 135.492188 74.765625 135.078125 C 74.097656 134.792969 72.089844 134.367188 71.4375 134.367188 C 71.238281 134.367188 70.8125 134.496094 70.496094 134.636719 Z M 70.496094 134.636719 "/>
<path style=" stroke:none;fill-rule:nonzero;fill:rgb(0%,0%,0%);fill-opacity:1;" d="M 42.726562 118.371094 C 42.242188 118.585938 42.199219 118.699219 42.257812 119.722656 C 42.328125 121.058594 43.265625 122.734375 44.816406 124.273438 C 46.039062 125.507812 46.992188 126.050781 47.675781 125.90625 C 48.273438 125.777344 49.027344 125.066406 49.226562 124.484375 C 49.441406 123.832031 49.269531 123.304688 48.386719 121.96875 C 47.035156 119.90625 45.796875 118.839844 44.261719 118.386719 C 43.335938 118.113281 43.308594 118.113281 42.726562 118.371094 Z M 42.726562 118.371094 "/>
<path style=" stroke:none;fill-rule:nonzero;fill:rgb(0%,0%,0%);fill-opacity:1;" d="M 33.308594 122.367188 C 33.121094 122.496094 32.894531 122.820312 32.78125 123.078125 C 32.425781 123.929688 32.511719 124.1875 33.449219 125.011719 C 34.445312 125.863281 34.859375 126.519531 35.339844 127.925781 C 35.980469 129.789062 36.492188 130.1875 38.015625 130.015625 C 39.195312 129.886719 39.46875 129.605469 39.367188 128.621094 C 39.226562 127.285156 38.613281 125.933594 37.6875 124.925781 C 36.292969 123.40625 34.53125 122.140625 33.832031 122.140625 C 33.71875 122.140625 33.492188 122.238281 33.308594 122.367188 Z M 33.308594 122.367188 "/>
<path style=" stroke:none;fill-rule:nonzero;fill:rgb(0%,0%,0%);fill-opacity:1;" d="M 23.960938 126.902344 C 23.589844 127.472656 23.761719 128.382812 24.441406 129.417969 C 25.238281 130.65625 25.679688 131.652344 26.09375 133.214844 C 26.292969 133.953125 26.5625 134.664062 26.675781 134.78125 C 26.820312 134.921875 27.144531 135.007812 27.542969 135.007812 C 28.113281 135.007812 28.257812 134.9375 28.667969 134.496094 C 29.847656 133.203125 29.210938 130.371094 27.246094 128.265625 C 25.710938 126.632812 24.472656 126.121094 23.960938 126.902344 Z M 23.960938 126.902344 "/>
</g>
</svg>
