<?xml version="1.0" encoding="UTF-8"?>
<svg xmlns="http://www.w3.org/2000/svg" xmlns:xlink="http://www.w3.org/1999/xlink" width="486pt" height="486pt" viewBox="0 0 486 486" version="1.1">
<g id="surface1">
<path style=" stroke:none;fill-rule:nonzero;fill:rgb(0%,0%,0%);fill-opacity:1;" d="M 335.878906 0.230469 C 335.347656 0.300781 333.640625 0.574219 332.082031 0.792969 C 323.027344 2.050781 312.480469 6.371094 302.667969 12.800781 C 293.070312 19.128906 285.867188 25.113281 271.621094 38.644531 C 260.660156 49.023438 256.195312 52.96875 251.074219 56.785156 C 231.394531 71.410156 203.414062 81.714844 158.464844 90.925781 L 152.550781 92.132812 L 149.167969 89.9375 C 128.207031 76.417969 106.296875 66.457031 82.183594 59.480469 C 74.792969 57.316406 64.101562 54.859375 58.378906 53.945312 C 53.644531 53.226562 44.046875 53.113281 40.558594 53.757812 C 25.550781 56.527344 17.433594 66.789062 15.539062 85.429688 C 14.894531 91.414062 15.238281 103.957031 16.300781 114.03125 C 19.867188 148.773438 27.332031 179.652344 40 212.347656 C 44.921875 225.074219 45.867188 228.5625 45.867188 233.871094 C 45.835938 238.90625 44.089844 242.882812 39.539062 248.191406 C 38.550781 249.355469 35.105469 253.074219 31.953125 256.445312 C 28.769531 259.816406 24.636719 264.625 22.785156 267.09375 C 10.386719 283.539062 3.257812 303.34375 0.6875 328.46875 C 0.0429688 334.683594 0.0429688 355.476562 0.6875 362.378906 C 2.238281 379.269531 4.546875 392.949219 9.324219 413.898438 C 12.167969 426.210938 12.4375 427.648438 13.113281 432.46875 C 13.800781 437.390625 14.863281 439.929688 17.015625 441.96875 C 18.277344 443.1875 22.292969 445.339844 22.628906 445 C 22.710938 444.96875 22.066406 442.886719 21.234375 440.378906 C 8.679688 403.21875 3.527344 357.300781 8.148438 324.109375 C 10.542969 307.101562 14.976562 294.027344 21.949219 283.726562 C 25.136719 278.988281 27.820312 275.917969 31.390625 273.003906 C 47.199219 260.121094 67.703125 259.671875 91.738281 271.671875 C 119.453125 285.546875 138.335938 306.800781 143.484375 329.976562 C 144.476562 334.453125 144.664062 344.183594 143.859375 348.960938 C 140.789062 367.300781 128.550781 381.050781 111.148438 385.746094 C 106.558594 387.003906 97.015625 387.148438 91.433594 386.089844 C 74.074219 382.757812 58.910156 370.589844 50.949219 353.625 C 50 351.542969 48.59375 348.660156 47.917969 347.140625 C 45.492188 342.03125 41.476562 339.792969 39.425781 342.40625 C 37.53125 344.757812 39.269531 352.710938 43.445312 360.671875 C 46.585938 366.730469 50.042969 371.277344 55.726562 377.003906 C 64.375 385.671875 73.054688 390.59375 84.347656 393.175781 C 89.582031 394.382812 94.160156 394.769531 108.796875 395.144531 C 122.980469 395.527344 126.199219 395.863281 131.664062 397.609375 C 136.011719 399.003906 139.925781 400.898438 144.015625 403.636719 C 149.054688 407.007812 152.4375 409.882812 162.066406 419.007812 C 171.578125 428.03125 175.0625 431.019531 179.839844 434.246094 C 184.316406 437.234375 188.148438 439.128906 192.996094 440.71875 C 196.558594 441.9375 200.125 442.6875 216.082031 445.726562 C 231.394531 448.683594 239.8125 453.148438 245.464844 461.410156 L 247.203125 463.984375 L 246.253906 467.355469 C 243.714844 476.484375 242.582031 481.863281 242.957031 482.625 C 243.414062 483.457031 247.015625 484.933594 248.679688 484.933594 C 250.886719 484.933594 251.1875 484.289062 253.613281 474.589844 C 256.871094 461.328125 258.089844 458.039062 261.421875 453.074219 C 265.59375 446.863281 269.382812 442.199219 274.617188 436.972656 C 289.554688 422.121094 308.046875 412.492188 326.285156 410.109375 C 349.453125 407.082031 370.832031 417.730469 382.464844 438.148438 C 387.472656 446.933594 389.898438 456.40625 389.628906 466.292969 L 389.511719 471.300781 L 390.65625 471.746094 C 394.289062 473.265625 399.035156 470.726562 400.546875 466.480469 C 401.230469 464.511719 401.191406 458.570312 400.472656 454.4375 C 398.691406 444.132812 392.019531 430.261719 384.132812 420.527344 C 381.820312 417.6875 375.753906 411.628906 372.007812 408.402344 L 369.996094 406.695312 L 378.9375 390.980469 C 405.738281 343.8125 408.089844 339.949219 411.691406 336.691406 C 415.253906 333.464844 420 332.558594 424.472656 334.226562 C 427.429688 335.285156 431.476562 339.375 433.226562 342.90625 C 436.871094 350.367188 436.339844 356.726562 430.832031 371.964844 C 426.441406 384.277344 425.492188 389.386719 425.835938 399.234375 C 426.140625 408.976562 428.148438 417.082031 432.539062 426.171875 C 438.191406 437.804688 446.152344 447.089844 456.355469 453.90625 C 461.015625 457.050781 465.261719 459.101562 470.714844 460.914062 C 477.542969 463.222656 481.03125 462.734375 483.527344 459.207031 L 484.675781 457.582031 L 484.589844 448.640625 C 484.445312 423.671875 478.222656 397.570312 466.699219 373.746094 C 462.796875 365.667969 459.496094 359.914062 454.34375 352.148438 C 449.109375 344.300781 445.132812 339.191406 437.058594 329.976562 C 429.667969 321.539062 426.628906 317.363281 424.160156 312.367188 C 421.664062 307.214844 420.789062 303.386719 420.789062 297.402344 C 420.789062 291.34375 421.402344 287.816406 424.359375 276.074219 C 428.292969 260.648438 429.699219 252.09375 430.230469 240.5 C 431.0625 221.515625 428.335938 204.125 421.175781 183.285156 C 419.914062 179.613281 416.3125 170.183594 413.171875 162.261719 C 399.371094 127.675781 397.589844 120.128906 395.964844 89.03125 C 395.050781 71.148438 394.332031 63.113281 393.082031 55.695312 C 390.085938 37.84375 383.570312 23.792969 373.816406 13.976562 C 366.8125 6.972656 359.527344 2.914062 350.203125 0.90625 C 347.546875 0.34375 337.847656 -0.113281 335.878906 0.230469 Z M 347.628906 14.96875 C 363.472656 20.796875 376.585938 40.882812 382.089844 67.664062 C 386.183594 87.667969 385.308594 106.984375 379.46875 124.035156 C 378.21875 127.789062 378.03125 129.945312 378.90625 131.609375 C 379.207031 132.183594 381.0625 134.835938 383.039062 137.492188 C 404.417969 166.351562 411.160156 183.058594 415.253906 217.46875 C 417.574219 236.824219 417.300781 253.832031 414.304688 275.429688 C 412.609375 287.742188 409.195312 302.09375 406.914062 306.527344 C 406.65625 307.101562 405.019531 311.609375 403.3125 316.574219 C 401.648438 321.539062 399.410156 327.480469 398.390625 329.792969 C 391.03125 346.195312 379.4375 359.984375 362.679688 372.152344 C 353.800781 378.625 345.734375 383.175781 329.207031 391.011719 C 289.4375 409.882812 273.097656 415.605469 253.457031 417.53125 C 246.828125 418.175781 232.078125 417.761719 225.5625 416.78125 C 211.535156 414.585938 195.535156 409.921875 178.363281 403.023438 C 161.003906 396.058594 143.144531 387.148438 141.550781 384.726562 C 140.644531 383.332031 141.132812 382.183594 143.640625 380.03125 C 144.890625 378.925781 146.785156 376.847656 147.890625 375.328125 C 148.980469 373.816406 150.648438 371.578125 151.5625 370.332031 C 153.613281 367.605469 155.539062 363.585938 156.371094 360.484375 C 157.246094 357.300781 157.515625 349.453125 156.984375 344.914062 C 156.296875 339.5625 154.933594 333.351562 152.582031 324.984375 C 147.960938 308.351562 144.320312 300.429688 137.949219 292.851562 C 136.816406 291.488281 135.035156 289.292969 134.003906 287.929688 C 132.941406 286.566406 131.046875 284.296875 129.769531 282.890625 C 126.125 278.917969 126.125 278.113281 129.800781 273.878906 C 131.132812 272.316406 133.589844 269.476562 135.292969 267.507812 C 143.601562 257.882812 150.042969 248.035156 160.886719 228.332031 C 171.390625 209.316406 175.136719 195.371094 177.761719 165.75 C 179.269531 148.929688 179.15625 141.839844 177.261719 134.335938 C 175.59375 127.820312 171.089844 117.746094 168.089844 113.8125 C 166.226562 111.386719 165.664062 110.097656 165.664062 108.160156 C 165.664062 106.609375 165.851562 106.234375 167.371094 104.601562 C 170.972656 100.738281 177.832031 98.242188 198.265625 93.277344 C 212.667969 89.75 232.308594 86.5625 242.8125 86.035156 C 246.671875 85.847656 248.492188 85.585938 249.511719 85.085938 C 252.09375 83.835938 256.644531 78.570312 261.765625 70.921875 C 264.460938 66.902344 268.019531 61.9375 269.683594 59.929688 C 273.628906 55.195312 284.128906 44.515625 288.9375 40.238281 C 302.59375 28.257812 322.339844 16.703125 333.484375 14.25 C 337.617188 13.300781 344.0625 13.632812 347.628906 14.96875 Z M 58.835938 93.765625 C 63.6875 94.597656 68.695312 96.378906 73.917969 99.148438 C 90.5625 107.902344 97.960938 116.339844 100.085938 129.183594 C 101.292969 136.316406 98.9375 143.777344 93.101562 151.542969 C 88.4375 157.753906 77.101562 167.683594 71.648438 170.371094 C 65.09375 173.585938 60.160156 170.746094 53.757812 160.023438 C 48.222656 150.75 44.089844 141.695312 41.550781 133.246094 C 39.882812 127.75 36.929688 114.605469 36.398438 110.472656 C 35.292969 101.644531 39.425781 95.089844 47.003906 93.609375 C 49.742188 93.078125 55.351562 93.164062 58.835938 93.765625 Z M 58.835938 93.765625 "/>
<path style=" stroke:none;fill-rule:nonzero;fill:rgb(0%,0%,0%);fill-opacity:1;" d="M 335.535156 36.78125 C 332.839844 37.238281 327.34375 39.09375 324.617188 40.496094 C 314.792969 45.460938 304.332031 55.308594 295.578125 67.933594 C 290.386719 75.355469 288.492188 79.601562 288.492188 83.804688 C 288.492188 88.800781 291.105469 91.613281 298.910156 94.902344 C 300.804688 95.703125 308.464844 99.40625 315.9375 103.164062 C 323.441406 106.871094 330.601562 110.355469 331.851562 110.816406 C 338.566406 113.3125 344.820312 113.542969 349.335938 111.460938 C 357.714844 107.515625 362.066406 95.773438 361.535156 78.425781 C 361.316406 71.222656 360.746094 67.289062 358.277344 56.253906 C 356.613281 48.835938 356.195312 47.355469 354.636719 44.359375 C 351.417969 38 344.589844 35.304688 335.535156 36.78125 Z M 337.960938 49.742188 C 340.386719 52.28125 341.792969 56.640625 344.746094 70.460938 C 346.527344 78.914062 347.285156 85.355469 347.359375 92.664062 C 347.433594 98.199219 347.359375 98.878906 346.714844 99.605469 C 345.308594 101.15625 342.394531 100.511719 334.015625 96.953125 C 326.054688 93.539062 319.539062 89.632812 312.179688 83.921875 C 306 79.101562 304.832031 76.789062 306.800781 73.160156 C 308.203125 70.503906 316.5 59.898438 320.070312 56.183594 C 325.292969 50.769531 329.925781 48.148438 334.320312 48.117188 C 336.253906 48.117188 336.484375 48.230469 337.960938 49.742188 Z M 337.960938 49.742188 "/>
<path style=" stroke:none;fill-rule:nonzero;fill:rgb(0%,0%,0%);fill-opacity:1;" d="M 337.242188 216.894531 C 335.984375 217.382812 333.070312 219.089844 330.800781 220.609375 C 328.480469 222.160156 325.109375 224.398438 323.328125 225.574219 C 319.613281 227.957031 316.3125 231.332031 314.992188 234.015625 C 313.660156 236.742188 313.542969 240.613281 314.71875 242.8125 C 316.082031 245.382812 318.019531 246.714844 320.515625 246.941406 C 322.527344 247.089844 322.683594 247.046875 323.898438 245.726562 C 324.765625 244.820312 325.710938 242.996094 326.773438 240.3125 C 329.394531 233.484375 331.289062 231.214844 336.628906 228.71875 C 340.917969 226.667969 343.34375 227.125 347.777344 230.800781 C 348.992188 231.820312 350.542969 232.921875 351.191406 233.296875 C 352.78125 234.128906 356.539062 234.128906 358.164062 233.257812 C 360.785156 231.859375 361.648438 228.375 360.171875 225.460938 C 359.039062 223.265625 355.507812 220.265625 352.023438 218.601562 C 346.109375 215.761719 341.332031 215.1875 337.242188 216.894531 Z M 337.242188 216.894531 "/>
<path style=" stroke:none;fill-rule:nonzero;fill:rgb(0%,0%,0%);fill-opacity:1;" d="M 379.28125 253.261719 C 374.242188 254.132812 362.035156 258.152344 357.789062 260.304688 C 356.007812 261.222656 354.832031 262.730469 354.832031 264.136719 C 354.832031 265.613281 356.039062 267.925781 357.488281 269.144531 C 359.414062 270.726562 361.234375 270.507812 366.3125 268.039062 C 370.027344 266.21875 371.089844 265.886719 374.734375 265.355469 C 377.992188 264.898438 379.511719 264.4375 381.707031 263.378906 C 384.933594 261.753906 385.195312 261.296875 385.308594 257.359375 C 385.347656 255.082031 385.234375 254.519531 384.589844 253.90625 C 383.527344 252.84375 382.308594 252.730469 379.28125 253.261719 Z M 379.28125 253.261719 "/>
<path style=" stroke:none;fill-rule:nonzero;fill:rgb(0%,0%,0%);fill-opacity:1;" d="M 188.03125 262.773438 C 187.5 262.847656 186.054688 263.117188 184.804688 263.347656 C 179.382812 264.292969 173.847656 268.300781 170.058594 274.023438 C 164.519531 282.433594 164.105469 285.734375 168.320312 288.574219 C 169.984375 289.75 172.335938 289.710938 174.042969 288.574219 C 174.835938 288.042969 175.898438 286.679688 176.84375 284.902344 C 178.820312 281.226562 183.902344 275.960938 186.929688 274.511719 C 191.289062 272.433594 195.121094 272.515625 201.292969 274.855469 C 205.425781 276.40625 207.359375 276.523438 209.671875 275.316406 C 212.855469 273.609375 213.085938 271.183594 210.359375 268.082031 C 208.046875 265.425781 206.070312 264.625 199.398438 263.53125 C 195.878906 262.929688 189.511719 262.511719 188.03125 262.773438 Z M 188.03125 262.773438 "/>
<path style=" stroke:none;fill-rule:nonzero;fill:rgb(0%,0%,0%);fill-opacity:1;" d="M 380.800781 276.074219 C 368.207031 279.476562 368.0625 279.5625 366.730469 280.925781 C 365.449219 282.320312 364.875 284.214844 365.449219 285.277344 C 365.636719 285.660156 366.355469 286.148438 367 286.378906 C 369.195312 287.140625 371.320312 286.867188 375.566406 285.246094 C 379.324219 283.796875 380 283.683594 384.015625 283.539062 C 389.554688 283.351562 393.269531 282.734375 393.988281 281.945312 C 395.507812 280.238281 395.207031 277.210938 393.3125 275.242188 C 392.207031 274.066406 391.863281 273.910156 390.242188 273.953125 C 389.210938 273.984375 384.964844 274.929688 380.800781 276.074219 Z M 380.800781 276.074219 "/>
<path style=" stroke:none;fill-rule:nonzero;fill:rgb(0%,0%,0%);fill-opacity:1;" d="M 275.335938 277.511719 C 265.4375 279.289062 256.644531 284.902344 251.71875 292.507812 C 249.324219 296.226562 248.796875 299.554688 250.160156 302.511719 C 251.75 305.925781 255.164062 307.890625 262.222656 309.371094 C 272.339844 311.492188 274.203125 312.179688 274.804688 313.804688 C 275.523438 315.65625 277.15625 328.542969 277.15625 332.371094 C 277.15625 336.003906 277 336.804688 275.753906 340.59375 C 273.554688 347.257812 271.089844 350.367188 266.425781 352.523438 C 259.109375 355.863281 250.011719 353.582031 242.3125 346.496094 C 240.386719 344.757812 238.21875 343.09375 237.503906 342.863281 C 235.492188 342.175781 233.785156 343.164062 232.539062 345.746094 C 231.664062 347.558594 231.550781 348.128906 231.707031 350.441406 C 232.007812 354.71875 234.433594 357.863281 239.398438 360.371094 C 245.382812 363.441406 251.792969 364.648438 260.015625 364.347656 C 270.859375 363.960938 276.355469 361.203125 279.84375 354.488281 C 282.765625 348.890625 285.867188 345.550781 289.023438 344.714844 C 290.386719 344.339844 290.875 344.382812 293.039062 345.175781 C 295.277344 346.007812 296.226562 346.078125 302.898438 346.195312 C 306.957031 346.277344 312.480469 346.164062 315.179688 345.933594 C 321.089844 345.445312 322.910156 344.714844 326.355469 341.5 C 327.6875 340.28125 330.414062 337.898438 332.382812 336.234375 C 337.203125 332.214844 337.617188 331.382812 338.605469 323.691406 C 339.066406 320.207031 339.253906 317.0625 339.097656 316.082031 C 338.792969 313.992188 337.160156 312.066406 335.191406 311.492188 C 333.183594 310.890625 329.3125 310.921875 327.804688 311.566406 C 325.449219 312.554688 325.148438 313.273438 324.847656 318.351562 C 324.503906 323.503906 323.441406 328.28125 322.191406 330.0625 C 321.046875 331.652344 318.363281 333.277344 315.21875 334.265625 C 311.835938 335.328125 305.132812 335.402344 301.375 334.414062 C 295.652344 332.902344 291.105469 329.5625 289.855469 326.003906 C 289.554688 325.023438 289.09375 322.484375 288.835938 320.359375 C 288.035156 313.199219 289.210938 308.351562 293.714844 300.128906 C 298.121094 292.207031 298.835938 290.46875 299.023438 287.210938 C 299.140625 284.515625 299.109375 284.214844 298.046875 282.546875 C 295.839844 279.144531 289.46875 276.9375 282.050781 276.980469 C 279.84375 276.980469 276.855469 277.25 275.335938 277.511719 Z M 275.335938 277.511719 "/>
<path style=" stroke:none;fill-rule:nonzero;fill:rgb(0%,0%,0%);fill-opacity:1;" d="M 372.570312 305.394531 C 370.902344 305.882812 369.238281 307.664062 369.238281 308.996094 C 369.238281 310.503906 370.183594 312.328125 371.546875 313.460938 C 372.765625 314.492188 372.910156 314.523438 375.304688 314.21875 C 380.6875 313.542969 382.121094 313.761719 385.996094 315.699219 C 389.855469 317.632812 391.304688 317.863281 393.3125 316.875 C 394.933594 316.113281 398.421875 312.441406 398.421875 311.492188 C 398.421875 309.371094 394.675781 307.289062 388.679688 306.082031 C 384.320312 305.207031 374.691406 304.789062 372.570312 305.394531 Z M 372.570312 305.394531 "/>
<path style=" stroke:none;fill-rule:nonzero;fill:rgb(0%,0%,0%);fill-opacity:1;" d="M 184.046875 310.316406 C 177.5625 312.554688 169.496094 317.445312 165.925781 321.265625 C 163.800781 323.546875 162.667969 325.929688 163.125 327.105469 C 163.542969 328.199219 165.28125 328.582031 167.445312 328.167969 C 170.027344 327.636719 186.585938 320.734375 188.898438 319.226562 C 191.476562 317.519531 191.78125 312.855469 189.46875 310.359375 C 188.449219 309.296875 187.042969 309.296875 184.046875 310.316406 Z M 184.046875 310.316406 "/>
<path style=" stroke:none;fill-rule:nonzero;fill:rgb(0%,0%,0%);fill-opacity:1;" d="M 183.097656 334.414062 C 182.570312 334.496094 180.832031 334.984375 179.238281 335.515625 C 171.835938 337.941406 166.34375 344.039062 167.558594 348.503906 C 168.089844 350.480469 169.914062 352.59375 171.390625 352.90625 C 173.015625 353.28125 176.125 351.648438 178.40625 349.265625 C 179.425781 348.203125 180.601562 347.140625 181.019531 346.914062 C 181.476562 346.695312 183.703125 346.496094 186.324219 346.464844 C 190.269531 346.464844 191.101562 346.308594 192.464844 345.589844 C 195.121094 344.183594 195.796875 342.074219 194.515625 339.261719 C 192.769531 335.402344 188.367188 333.546875 183.097656 334.414062 Z M 183.097656 334.414062 "/>
<path style=" stroke:none;fill-rule:nonzero;fill:rgb(0%,0%,0%);fill-opacity:1;" d="M 187.835938 358.734375 C 186.097656 359.539062 183.816406 361.648438 179.238281 366.886719 C 174.804688 371.851562 174.230469 374.121094 176.730469 376.585938 C 180.101562 379.957031 186.628906 378.136719 190.15625 372.796875 C 191.476562 370.820312 192.464844 370.257812 195.609375 369.570312 C 200.875 368.476562 202.4375 367.230469 202.4375 364.042969 C 202.4375 361.878906 201.75 361.015625 199.210938 359.914062 C 197.429688 359.152344 192.082031 358.019531 190.34375 358.019531 C 189.8125 358.019531 188.679688 358.359375 187.835938 358.734375 Z M 187.835938 358.734375 "/>
<path style=" stroke:none;fill-rule:nonzero;fill:rgb(0%,0%,0%);fill-opacity:1;" d="M 113.84375 315.398438 C 112.554688 315.96875 112.4375 316.269531 112.59375 318.996094 C 112.78125 322.558594 115.28125 327.023438 119.414062 331.125 C 122.667969 334.414062 125.210938 335.859375 127.03125 335.472656 C 128.625 335.128906 130.632812 333.234375 131.164062 331.683594 C 131.734375 329.945312 131.277344 328.542969 128.925781 324.984375 C 125.324219 319.488281 122.023438 316.644531 117.933594 315.4375 C 115.46875 314.710938 115.394531 314.710938 113.84375 315.398438 Z M 113.84375 315.398438 "/>
<path style=" stroke:none;fill-rule:nonzero;fill:rgb(0%,0%,0%);fill-opacity:1;" d="M 88.75 326.042969 C 88.25 326.386719 87.648438 327.25 87.34375 327.9375 C 86.398438 330.207031 86.625 330.894531 89.125 333.089844 C 91.777344 335.359375 92.882812 337.109375 94.160156 340.855469 C 95.867188 345.820312 97.234375 346.882812 101.292969 346.421875 C 104.433594 346.078125 105.164062 345.332031 104.894531 342.707031 C 104.519531 339.148438 102.882812 335.546875 100.417969 332.863281 C 96.703125 328.8125 92.007812 325.441406 90.144531 325.441406 C 89.84375 325.441406 89.238281 325.699219 88.75 326.042969 Z M 88.75 326.042969 "/>
<path style=" stroke:none;fill-rule:nonzero;fill:rgb(0%,0%,0%);fill-opacity:1;" d="M 63.84375 338.128906 C 62.855469 339.648438 63.3125 342.074219 65.125 344.832031 C 67.246094 348.128906 68.421875 350.785156 69.527344 354.949219 C 70.058594 356.914062 70.773438 358.808594 71.078125 359.121094 C 71.460938 359.496094 72.324219 359.726562 73.386719 359.726562 C 74.90625 359.726562 75.292969 359.539062 76.386719 358.359375 C 79.527344 354.917969 77.832031 347.371094 72.597656 341.761719 C 68.507812 337.410156 65.207031 336.046875 63.84375 338.128906 Z M 63.84375 338.128906 "/>
</g>
</svg>
