<?xml version="1.0" encoding="UTF-8"?>
<svg xmlns="http://www.w3.org/2000/svg" xmlns:xlink="http://www.w3.org/1999/xlink" width="400pt" height="400pt" viewBox="0 0 400 400" version="1.1">
<g id="surface1">
<path style=" stroke:none;fill-rule:nonzero;fill:rgb(0%,0%,0%);fill-opacity:1;" d="M 276.214844 0.191406 C 275.78125 0.246094 274.375 0.472656 273.09375 0.652344 C 265.648438 1.6875 256.972656 5.238281 248.90625 10.527344 C 241.011719 15.730469 235.089844 20.652344 223.371094 31.78125 C 214.359375 40.316406 210.6875 43.558594 206.476562 46.699219 C 190.292969 58.726562 167.28125 67.199219 130.316406 74.773438 L 125.453125 75.765625 L 122.671875 73.960938 C 105.433594 62.84375 87.414062 54.652344 67.585938 48.914062 C 61.507812 47.136719 52.714844 45.113281 48.007812 44.363281 C 44.117188 43.773438 36.222656 43.679688 33.355469 44.207031 C 21.011719 46.484375 14.335938 54.925781 12.777344 70.253906 C 12.25 75.175781 12.53125 85.492188 13.40625 93.777344 C 16.339844 122.347656 22.476562 147.742188 32.894531 174.628906 C 36.941406 185.09375 37.71875 187.960938 37.71875 192.328125 C 37.695312 196.46875 36.257812 199.738281 32.515625 204.105469 C 31.703125 205.0625 28.871094 208.121094 26.277344 210.890625 C 23.660156 213.664062 20.261719 217.621094 18.738281 219.648438 C 8.542969 233.171875 2.679688 249.460938 0.566406 270.121094 C 0.0351562 275.234375 0.0351562 292.332031 0.566406 298.007812 C 1.839844 311.898438 3.738281 323.148438 7.667969 340.378906 C 10.007812 350.503906 10.226562 351.683594 10.785156 355.648438 C 11.347656 359.695312 12.222656 361.785156 13.992188 363.460938 C 15.03125 364.464844 18.332031 366.234375 18.609375 365.953125 C 18.675781 365.929688 18.148438 364.214844 17.460938 362.152344 C 7.136719 331.59375 2.902344 293.832031 6.699219 266.539062 C 8.671875 252.550781 12.316406 241.796875 18.050781 233.328125 C 20.671875 229.429688 22.878906 226.90625 25.816406 224.511719 C 38.816406 213.914062 55.675781 213.546875 75.441406 223.414062 C 98.234375 234.824219 113.761719 252.304688 117.996094 271.363281 C 118.8125 275.042969 118.96875 283.046875 118.304688 286.972656 C 115.78125 302.054688 105.714844 313.363281 91.40625 317.226562 C 87.628906 318.261719 79.78125 318.378906 75.191406 317.507812 C 60.917969 314.769531 48.445312 304.761719 41.898438 290.808594 C 41.117188 289.097656 39.960938 286.726562 39.40625 285.476562 C 37.410156 281.277344 34.109375 279.433594 32.421875 281.585938 C 30.863281 283.519531 32.292969 290.058594 35.726562 296.605469 C 38.3125 301.585938 41.152344 305.328125 45.828125 310.035156 C 52.941406 317.164062 60.078125 321.210938 69.363281 323.335938 C 73.667969 324.328125 77.433594 324.644531 89.472656 324.953125 C 101.136719 325.269531 103.78125 325.546875 108.277344 326.980469 C 111.851562 328.128906 115.070312 329.6875 118.433594 331.9375 C 122.578125 334.710938 125.359375 337.074219 133.277344 344.578125 C 141.101562 352 143.964844 354.457031 147.894531 357.109375 C 151.574219 359.566406 154.726562 361.125 158.714844 362.433594 C 161.644531 363.433594 164.578125 364.050781 177.699219 366.550781 C 190.292969 368.984375 197.214844 372.65625 201.863281 379.449219 L 203.292969 381.566406 L 202.511719 384.339844 C 200.421875 391.84375 199.492188 396.269531 199.800781 396.894531 C 200.175781 397.578125 203.136719 398.792969 204.507812 398.792969 C 206.320312 398.792969 206.570312 398.265625 208.5625 390.289062 C 211.242188 379.382812 212.246094 376.675781 214.984375 372.59375 C 218.414062 367.484375 221.53125 363.652344 225.835938 359.351562 C 238.121094 347.140625 253.328125 339.21875 268.328125 337.261719 C 287.378906 334.769531 304.960938 343.527344 314.527344 360.320312 C 318.644531 367.542969 320.640625 375.335938 320.417969 383.464844 L 320.320312 387.582031 L 321.261719 387.949219 C 324.25 389.199219 328.152344 387.109375 329.398438 383.617188 C 329.960938 382 329.925781 377.113281 329.335938 373.714844 C 327.871094 365.242188 322.382812 353.832031 315.898438 345.828125 C 313.996094 343.492188 309.007812 338.511719 305.925781 335.855469 L 304.273438 334.453125 L 311.625 321.53125 C 333.667969 282.742188 335.601562 279.5625 338.5625 276.882812 C 341.492188 274.230469 345.394531 273.484375 349.074219 274.855469 C 351.503906 275.726562 354.832031 279.089844 356.273438 281.996094 C 359.269531 288.132812 358.832031 293.359375 354.300781 305.890625 C 350.691406 316.015625 349.910156 320.21875 350.195312 328.316406 C 350.445312 336.328125 352.097656 342.996094 355.707031 350.46875 C 360.355469 360.035156 366.902344 367.671875 375.292969 373.277344 C 379.125 375.863281 382.617188 377.550781 387.101562 379.042969 C 392.714844 380.941406 395.585938 380.539062 397.636719 377.636719 L 398.582031 376.300781 L 398.511719 368.949219 C 398.390625 348.414062 393.273438 326.949219 383.796875 307.355469 C 380.589844 300.714844 377.875 295.980469 373.636719 289.597656 C 369.332031 283.140625 366.0625 278.941406 359.421875 271.363281 C 353.34375 264.421875 350.847656 260.988281 348.816406 256.882812 C 346.761719 252.644531 346.042969 249.496094 346.042969 244.574219 C 346.042969 239.59375 346.546875 236.691406 348.980469 227.035156 C 352.214844 214.347656 353.371094 207.3125 353.808594 197.78125 C 354.492188 182.167969 352.25 167.867188 346.363281 150.726562 C 345.324219 147.707031 342.363281 139.953125 339.78125 133.4375 C 328.429688 104.996094 326.964844 98.789062 325.628906 73.214844 C 324.878906 58.511719 324.285156 51.902344 323.257812 45.800781 C 320.792969 31.121094 315.4375 19.566406 307.414062 11.492188 C 301.65625 5.734375 295.664062 2.394531 287.996094 0.746094 C 285.8125 0.28125 277.835938 -0.09375 276.214844 0.191406 Z M 285.878906 12.308594 C 298.910156 17.101562 309.691406 33.621094 314.21875 55.644531 C 317.585938 72.09375 316.867188 87.980469 312.0625 102.003906 C 311.035156 105.089844 310.882812 106.863281 311.601562 108.230469 C 311.847656 108.703125 313.375 110.886719 315 113.070312 C 332.582031 136.800781 338.125 150.542969 341.492188 178.839844 C 343.398438 194.757812 343.175781 208.742188 340.710938 226.503906 C 339.316406 236.628906 336.507812 248.433594 334.632812 252.078125 C 334.421875 252.550781 333.074219 256.257812 331.671875 260.339844 C 330.304688 264.421875 328.460938 269.308594 327.625 271.210938 C 321.570312 284.699219 312.039062 296.039062 298.257812 306.046875 C 290.953125 311.371094 284.320312 315.113281 270.730469 321.554688 C 238.023438 337.074219 224.585938 341.78125 208.433594 343.363281 C 202.984375 343.894531 190.855469 343.554688 185.496094 342.746094 C 173.960938 340.941406 160.800781 337.105469 146.679688 331.433594 C 132.40625 325.707031 117.71875 318.378906 116.40625 316.386719 C 115.660156 315.238281 116.0625 314.296875 118.125 312.527344 C 119.152344 311.617188 120.710938 309.90625 121.621094 308.65625 C 122.515625 307.414062 123.886719 305.574219 124.640625 304.550781 C 126.328125 302.308594 127.910156 299 128.59375 296.449219 C 129.3125 293.832031 129.535156 287.378906 129.097656 283.644531 C 128.535156 279.246094 127.414062 274.136719 125.480469 267.257812 C 121.679688 253.578125 118.683594 247.0625 113.445312 240.832031 C 112.511719 239.710938 111.046875 237.90625 110.199219 236.785156 C 109.328125 235.664062 107.769531 233.796875 106.71875 232.640625 C 103.722656 229.375 103.722656 228.710938 106.742188 225.230469 C 107.839844 223.945312 109.859375 221.609375 111.261719 219.988281 C 118.09375 212.074219 123.390625 203.976562 132.308594 187.773438 C 140.945312 172.136719 144.027344 160.667969 146.1875 136.308594 C 147.425781 122.476562 147.332031 116.644531 145.773438 110.472656 C 144.402344 105.117188 140.699219 96.832031 138.230469 93.597656 C 136.699219 91.601562 136.238281 90.539062 136.238281 88.949219 C 136.238281 87.671875 136.390625 87.363281 137.640625 86.019531 C 140.601562 82.84375 146.242188 80.792969 163.046875 76.707031 C 174.890625 73.808594 191.042969 71.1875 199.679688 70.753906 C 202.855469 70.597656 204.351562 70.382812 205.191406 69.972656 C 207.3125 68.945312 211.054688 64.613281 215.269531 58.324219 C 217.484375 55.019531 220.410156 50.933594 221.777344 49.285156 C 225.023438 45.390625 233.660156 36.609375 237.613281 33.089844 C 248.84375 23.238281 265.082031 13.734375 274.246094 11.71875 C 277.644531 10.9375 282.945312 11.210938 285.878906 12.308594 Z M 48.386719 77.109375 C 52.375 77.792969 56.492188 79.257812 60.789062 81.535156 C 74.476562 88.734375 80.558594 95.675781 82.308594 106.238281 C 83.300781 112.101562 81.363281 118.238281 76.5625 124.625 C 72.726562 129.730469 63.40625 137.898438 58.921875 140.109375 C 53.53125 142.75 49.472656 140.417969 44.207031 131.597656 C 39.65625 123.972656 36.257812 116.527344 34.171875 109.578125 C 32.796875 105.058594 30.371094 94.246094 29.933594 90.847656 C 29.023438 83.589844 32.421875 78.199219 38.65625 76.980469 C 40.90625 76.542969 45.519531 76.613281 48.386719 77.109375 Z M 48.386719 77.109375 "/>
<path style=" stroke:none;fill-rule:nonzero;fill:rgb(0%,0%,0%);fill-opacity:1;" d="M 275.933594 30.246094 C 273.71875 30.625 269.195312 32.148438 266.953125 33.300781 C 258.875 37.386719 250.273438 45.484375 243.074219 55.867188 C 238.804688 61.96875 237.246094 65.460938 237.246094 68.917969 C 237.246094 73.027344 239.394531 75.339844 245.8125 78.042969 C 247.371094 78.703125 253.671875 81.75 259.816406 84.839844 C 265.988281 87.886719 271.875 90.753906 272.902344 91.132812 C 278.425781 93.183594 283.570312 93.375 287.28125 91.660156 C 294.171875 88.417969 297.753906 78.761719 297.316406 64.496094 C 297.136719 58.570312 296.667969 55.335938 294.636719 46.261719 C 293.265625 40.160156 292.921875 38.945312 291.640625 36.480469 C 288.996094 31.25 283.378906 29.035156 275.933594 30.246094 Z M 277.929688 40.90625 C 279.921875 42.996094 281.078125 46.578125 283.507812 57.945312 C 284.972656 64.894531 285.597656 70.195312 285.65625 76.203125 C 285.71875 80.757812 285.65625 81.316406 285.128906 81.914062 C 283.972656 83.1875 281.574219 82.65625 274.683594 79.730469 C 268.136719 76.921875 262.777344 73.710938 256.726562 69.015625 C 251.644531 65.050781 250.683594 63.148438 252.304688 60.164062 C 253.457031 57.980469 260.28125 49.257812 263.214844 46.203125 C 267.511719 41.75 271.320312 39.597656 274.933594 39.570312 C 276.523438 39.570312 276.714844 39.664062 277.929688 40.90625 Z M 277.929688 40.90625 "/>
<path style=" stroke:none;fill-rule:nonzero;fill:rgb(0%,0%,0%);fill-opacity:1;" d="M 277.335938 178.367188 C 276.304688 178.769531 273.90625 180.171875 272.039062 181.421875 C 270.132812 182.699219 267.359375 184.539062 265.894531 185.503906 C 262.839844 187.464844 260.125 190.238281 259.039062 192.445312 C 257.945312 194.6875 257.847656 197.871094 258.816406 199.679688 C 259.9375 201.796875 261.527344 202.890625 263.582031 203.078125 C 265.234375 203.199219 265.363281 203.164062 266.363281 202.078125 C 267.078125 201.332031 267.855469 199.832031 268.726562 197.625 C 270.882812 192.011719 272.441406 190.144531 276.832031 188.089844 C 280.359375 186.40625 282.355469 186.78125 286 189.804688 C 287 190.640625 288.277344 191.546875 288.808594 191.855469 C 290.117188 192.539062 293.207031 192.539062 294.542969 191.824219 C 296.699219 190.671875 297.410156 187.808594 296.195312 185.410156 C 295.261719 183.605469 292.359375 181.140625 289.492188 179.769531 C 284.628906 177.4375 280.699219 176.964844 277.335938 178.367188 Z M 277.335938 178.367188 "/>
<path style=" stroke:none;fill-rule:nonzero;fill:rgb(0%,0%,0%);fill-opacity:1;" d="M 311.910156 208.273438 C 307.765625 208.992188 297.726562 212.296875 294.234375 214.066406 C 292.769531 214.820312 291.800781 216.0625 291.800781 217.21875 C 291.800781 218.433594 292.796875 220.332031 293.988281 221.335938 C 295.570312 222.636719 297.066406 222.457031 301.242188 220.425781 C 304.296875 218.929688 305.171875 218.65625 308.167969 218.21875 C 310.847656 217.84375 312.097656 217.464844 313.902344 216.59375 C 316.558594 215.257812 316.773438 214.882812 316.867188 211.644531 C 316.898438 209.769531 316.804688 209.308594 316.273438 208.804688 C 315.402344 207.929688 314.398438 207.835938 311.910156 208.273438 Z M 311.910156 208.273438 "/>
<path style=" stroke:none;fill-rule:nonzero;fill:rgb(0%,0%,0%);fill-opacity:1;" d="M 154.632812 216.097656 C 154.195312 216.15625 153.003906 216.378906 151.976562 216.570312 C 147.519531 217.347656 142.96875 220.640625 139.851562 225.347656 C 135.296875 232.265625 134.957031 234.980469 138.421875 237.3125 C 139.789062 238.28125 141.722656 238.25 143.128906 237.3125 C 143.78125 236.878906 144.652344 235.757812 145.429688 234.292969 C 147.054688 231.273438 151.234375 226.941406 153.726562 225.75 C 157.308594 224.039062 160.460938 224.109375 165.535156 226.03125 C 168.9375 227.308594 170.527344 227.402344 172.425781 226.410156 C 175.046875 225.007812 175.234375 223.011719 172.992188 220.460938 C 171.089844 218.277344 169.464844 217.621094 163.980469 216.71875 C 161.085938 216.226562 155.847656 215.882812 154.632812 216.097656 Z M 154.632812 216.097656 "/>
<path style=" stroke:none;fill-rule:nonzero;fill:rgb(0%,0%,0%);fill-opacity:1;" d="M 313.160156 227.035156 C 302.800781 229.832031 302.683594 229.902344 301.585938 231.023438 C 300.535156 232.171875 300.0625 233.730469 300.535156 234.601562 C 300.6875 234.917969 301.277344 235.320312 301.808594 235.507812 C 303.613281 236.136719 305.363281 235.910156 308.855469 234.578125 C 311.945312 233.386719 312.5 233.292969 315.800781 233.171875 C 320.359375 233.019531 323.414062 232.511719 324.003906 231.863281 C 325.253906 230.460938 325.003906 227.96875 323.449219 226.351562 C 322.539062 225.382812 322.257812 225.253906 320.921875 225.289062 C 320.074219 225.316406 316.582031 226.09375 313.160156 227.035156 Z M 313.160156 227.035156 "/>
<path style=" stroke:none;fill-rule:nonzero;fill:rgb(0%,0%,0%);fill-opacity:1;" d="M 226.425781 228.21875 C 218.289062 229.679688 211.054688 234.292969 207.003906 240.550781 C 205.035156 243.605469 204.601562 246.34375 205.722656 248.777344 C 207.03125 251.582031 209.839844 253.199219 215.644531 254.417969 C 223.964844 256.160156 225.496094 256.726562 225.992188 258.0625 C 226.582031 259.585938 227.925781 270.183594 227.925781 273.332031 C 227.925781 276.320312 227.796875 276.976562 226.769531 280.09375 C 224.960938 285.574219 222.9375 288.132812 219.101562 289.902344 C 213.082031 292.652344 205.601562 290.773438 199.269531 284.949219 C 197.6875 283.519531 195.902344 282.148438 195.316406 281.960938 C 193.660156 281.394531 192.257812 282.207031 191.234375 284.332031 C 190.511719 285.820312 190.421875 286.289062 190.546875 288.191406 C 190.796875 291.710938 192.789062 294.296875 196.875 296.359375 C 201.796875 298.882812 207.066406 299.875 213.828125 299.628906 C 222.746094 299.308594 227.265625 297.042969 230.132812 291.519531 C 232.539062 286.917969 235.089844 284.171875 237.683594 283.484375 C 238.804688 283.175781 239.207031 283.210938 240.984375 283.863281 C 242.828125 284.546875 243.605469 284.605469 249.09375 284.699219 C 252.433594 284.765625 256.972656 284.675781 259.195312 284.484375 C 264.054688 284.082031 265.550781 283.484375 268.382812 280.839844 C 269.480469 279.835938 271.722656 277.878906 273.339844 276.507812 C 277.304688 273.203125 277.644531 272.519531 278.457031 266.195312 C 278.835938 263.328125 278.992188 260.742188 278.863281 259.9375 C 278.613281 258.21875 277.269531 256.632812 275.652344 256.160156 C 274 255.667969 270.816406 255.691406 269.578125 256.222656 C 267.640625 257.035156 267.390625 257.625 267.144531 261.800781 C 266.863281 266.039062 265.988281 269.96875 264.960938 271.433594 C 264.019531 272.742188 261.8125 274.078125 259.226562 274.890625 C 256.445312 275.761719 250.929688 275.824219 247.839844 275.011719 C 243.136719 273.769531 239.394531 271.023438 238.367188 268.09375 C 238.121094 267.289062 237.742188 265.199219 237.53125 263.453125 C 236.871094 257.566406 237.839844 253.578125 241.542969 246.816406 C 245.164062 240.300781 245.753906 238.871094 245.90625 236.191406 C 246.003906 233.976562 245.976562 233.730469 245.105469 232.359375 C 243.289062 229.558594 238.050781 227.746094 231.949219 227.78125 C 230.132812 227.78125 227.675781 228 226.425781 228.21875 Z M 226.425781 228.21875 "/>
<path style=" stroke:none;fill-rule:nonzero;fill:rgb(0%,0%,0%);fill-opacity:1;" d="M 306.390625 251.148438 C 305.019531 251.546875 303.648438 253.011719 303.648438 254.109375 C 303.648438 255.347656 304.425781 256.847656 305.546875 257.78125 C 306.550781 258.628906 306.667969 258.652344 308.640625 258.402344 C 313.066406 257.847656 314.246094 258.027344 317.429688 259.621094 C 320.605469 261.210938 321.796875 261.402344 323.449219 260.589844 C 324.78125 259.960938 327.648438 256.941406 327.648438 256.160156 C 327.648438 254.417969 324.570312 252.703125 319.636719 251.710938 C 316.054688 250.992188 308.132812 250.648438 306.390625 251.148438 Z M 306.390625 251.148438 "/>
<path style=" stroke:none;fill-rule:nonzero;fill:rgb(0%,0%,0%);fill-opacity:1;" d="M 151.355469 255.195312 C 146.023438 257.035156 139.386719 261.058594 136.453125 264.199219 C 134.703125 266.074219 133.773438 268.035156 134.148438 269 C 134.492188 269.902344 135.921875 270.214844 137.703125 269.875 C 139.824219 269.4375 153.441406 263.761719 155.34375 262.523438 C 157.464844 261.117188 157.714844 257.28125 155.8125 255.230469 C 154.976562 254.355469 153.816406 254.355469 151.355469 255.195312 Z M 151.355469 255.195312 "/>
<path style=" stroke:none;fill-rule:nonzero;fill:rgb(0%,0%,0%);fill-opacity:1;" d="M 150.574219 275.011719 C 150.140625 275.078125 148.710938 275.480469 147.398438 275.917969 C 141.3125 277.914062 136.796875 282.925781 137.792969 286.597656 C 138.230469 288.222656 139.730469 289.960938 140.945312 290.21875 C 142.28125 290.527344 144.839844 289.183594 146.714844 287.226562 C 147.554688 286.351562 148.519531 285.476562 148.863281 285.292969 C 149.242188 285.109375 151.070312 284.949219 153.226562 284.921875 C 156.472656 284.921875 157.15625 284.792969 158.277344 284.203125 C 160.460938 283.046875 161.015625 281.3125 159.964844 279 C 158.527344 275.824219 154.90625 274.296875 150.574219 275.011719 Z M 150.574219 275.011719 "/>
<path style=" stroke:none;fill-rule:nonzero;fill:rgb(0%,0%,0%);fill-opacity:1;" d="M 154.46875 295.011719 C 153.039062 295.671875 151.164062 297.410156 147.398438 301.714844 C 143.753906 305.800781 143.28125 307.664062 145.335938 309.691406 C 148.109375 312.464844 153.476562 310.96875 156.378906 306.578125 C 157.464844 304.949219 158.277344 304.488281 160.863281 303.921875 C 165.191406 303.023438 166.476562 302 166.476562 299.378906 C 166.476562 297.597656 165.914062 296.886719 163.824219 295.980469 C 162.359375 295.355469 157.960938 294.425781 156.53125 294.425781 C 156.097656 294.425781 155.164062 294.703125 154.46875 295.011719 Z M 154.46875 295.011719 "/>
<path style=" stroke:none;fill-rule:nonzero;fill:rgb(0%,0%,0%);fill-opacity:1;" d="M 93.621094 259.375 C 92.5625 259.84375 92.464844 260.089844 92.59375 262.332031 C 92.746094 265.261719 94.804688 268.933594 98.203125 272.308594 C 100.878906 275.011719 102.96875 276.199219 104.464844 275.882812 C 105.777344 275.597656 107.429688 274.042969 107.863281 272.765625 C 108.335938 271.335938 107.957031 270.183594 106.023438 267.257812 C 103.0625 262.738281 100.347656 260.398438 96.984375 259.40625 C 94.957031 258.808594 94.898438 258.808594 93.621094 259.375 Z M 93.621094 259.375 "/>
<path style=" stroke:none;fill-rule:nonzero;fill:rgb(0%,0%,0%);fill-opacity:1;" d="M 72.984375 268.128906 C 72.574219 268.410156 72.078125 269.121094 71.828125 269.683594 C 71.050781 271.550781 71.238281 272.117188 73.292969 273.921875 C 75.476562 275.789062 76.382812 277.226562 77.433594 280.308594 C 78.839844 284.390625 79.960938 285.265625 83.300781 284.886719 C 85.882812 284.605469 86.484375 283.988281 86.261719 281.832031 C 85.953125 278.90625 84.609375 275.941406 82.582031 273.734375 C 79.527344 270.40625 75.664062 267.632812 74.132812 267.632812 C 73.882812 267.632812 73.386719 267.84375 72.984375 268.128906 Z M 72.984375 268.128906 "/>
<path style=" stroke:none;fill-rule:nonzero;fill:rgb(0%,0%,0%);fill-opacity:1;" d="M 52.503906 278.066406 C 51.691406 279.316406 52.066406 281.3125 53.558594 283.578125 C 55.300781 286.289062 56.269531 288.476562 57.175781 291.898438 C 57.613281 293.515625 58.203125 295.074219 58.453125 295.328125 C 58.765625 295.636719 59.476562 295.828125 60.351562 295.828125 C 61.601562 295.828125 61.917969 295.671875 62.816406 294.703125 C 65.402344 291.875 64.007812 285.667969 59.703125 281.054688 C 56.339844 277.476562 53.625 276.355469 52.503906 278.066406 Z M 52.503906 278.066406 "/>
</g>
</svg>
