<?xml version="1.0" encoding="UTF-8" standalone="no"?>
<svg
   version="1.1"
   viewBox="-10 0 266 256"
   id="svg850"
   sodipodi:docname="guo.svg"
   inkscape:version="1.1 (c68e22c387, 2021-05-23)"
   xmlns:inkscape="http://www.inkscape.org/namespaces/inkscape"
   xmlns:sodipodi="http://sodipodi.sourceforge.net/DTD/sodipodi-0.dtd"
   xmlns="http://www.w3.org/2000/svg"
   xmlns:svg="http://www.w3.org/2000/svg">
  <defs
     id="defs854" />
  <sodipodi:namedview
     id="namedview852"
     pagecolor="#ffffff"
     bordercolor="#666666"
     borderopacity="1.0"
     inkscape:pageshadow="2"
     inkscape:pageopacity="0.0"
     inkscape:pagecheckerboard="0"
     showgrid="false"
     inkscape:zoom="2"
     inkscape:cx="148.75"
     inkscape:cy="168.25"
     inkscape:window-width="1920"
     inkscape:window-height="1017"
     inkscape:window-x="-8"
     inkscape:window-y="-8"
     inkscape:window-maximized="1"
     inkscape:current-layer="svg850" />
  <path
     style="fill:none;stroke:#000000;stroke-width:6.103;stroke-linecap:butt;stroke-linejoin:miter;stroke-opacity:1;stroke-miterlimit:4;stroke-dasharray:none"
     d="m 61.993784,42.290055 5.118439,11.523481 -3.048687,47.995854 -2.573205,32.221 -1.566298,14.43232 -1.118785,26.62707 L 65,202"
     id="path987" />
  <path
     style="fill:none;stroke:#000000;stroke-width:6.103;stroke-linecap:butt;stroke-linejoin:miter;stroke-opacity:1;stroke-miterlimit:4;stroke-dasharray:none"
     d="m 85.426453,25.967862 2.383284,0.155757 5.389273,-0.650195 13.56737,-4.509271 22.70457,-5.537701 19.85662,-2.45241 14.2398,-0.39555 10.20519,1.10754 8.54388,2.847961 7.83189,5.14215 9.65142,17.008653 3.71817,7.673671 -6.48702,5.379481 -1.81953,18.986403 -0.94932,20.173053 0.7911,29.428926 1.02843,23.10012 1.18665,20.96416 1.26576,19.14462 1.66131,15.74289 0.23733,5.37948 2.92707,11.62917 -18.82818,-15.18912 -19.27761,-16.03124"
     id="path989" />
  <path
     style="fill:none;stroke:#000000;stroke-width:6.103;stroke-linecap:butt;stroke-linejoin:miter;stroke-opacity:1;stroke-miterlimit:4;stroke-dasharray:none"
     d="m 89.569473,69.097591 50.690717,-12.352272 9.8995,-2.563262 0.7071,-3.712311 14.93763,3.800699"
     id="path991" />
  <path
     style="fill:none;stroke:#000000;stroke-width:6.103;stroke-linecap:butt;stroke-linejoin:miter;stroke-opacity:1;stroke-miterlimit:4;stroke-dasharray:none"
     d="m 129.57812,23.5625 8.17188,7.25 2.25,23.9375 5.56349,25.683396 8.83884,34.294674 6.91017,16.83443 7.5,15.625 5.75,8.9375 L 182,166 l 11.25,9.5 -7.0625,-13.625 -0.625,-4.875 -0.3125,-9.125 0.15625,-5.71875"
     id="path993" />
  <path
     style="fill:none;stroke:#000000;stroke-width:6.103;stroke-linecap:butt;stroke-linejoin:miter;stroke-opacity:1;stroke-miterlimit:4;stroke-dasharray:none"
     d="m 150.46904,30.980116 14.58408,5.833631 8.08754,4.728776"
     id="path995" />
  <path
     style="fill:none;stroke:#000000;stroke-width:6.103;stroke-linecap:butt;stroke-linejoin:miter;stroke-opacity:1;stroke-miterlimit:4;stroke-dasharray:none"
     d="m 167.125,97.3125 1.9375,4.625 c 0,0 -3.625,12.625 -3.75,12.875 -0.125,0.25 -4.8125,10.6875 -4.8125,10.6875 l -7.4375,13.625 -11.1875,11.25 -9.875,5.75 c 0,0 -9.20313,2.5625 -9.26563,2.57812"
     id="path1005" />
  <path
     style="fill:none;stroke:#000000;stroke-width:6.103;stroke-linecap:butt;stroke-linejoin:miter;stroke-opacity:1;stroke-miterlimit:4;stroke-dasharray:none"
     d="m 81.879687,95.415221 -0.132582,5.966209 1.723572,5.21492 8.396893,10.47402 3.8007,3.88908 0.66291,0.66292"
     id="path1007" />
  <path
     style="fill:none;stroke:#000000;stroke-width:6.103;stroke-linecap:butt;stroke-linejoin:miter;stroke-opacity:1;stroke-miterlimit:4;stroke-dasharray:none"
     d="m 84.266173,106.11021 5.347495,-4.72878 11.976622,-5.480073 13.30244,-3.447146 5.21492,-0.883883 -7.07107,11.667262 -1.19324,4.28683 -0.30936,2.69585"
     id="path1009" />
  <path
     style="fill:none;stroke:#000000;stroke-width:6.103;stroke-linecap:butt;stroke-linejoin:miter;stroke-opacity:1;stroke-miterlimit:4;stroke-dasharray:none"
     d="m 93.54695,126.52792 2.78423,-4.90555 12.37437,-9.67853 2.82843,-1.72357 8.48528,-2.16552 8.17592,-2.07712"
     id="path1011" />
  <path
     style="fill:none;stroke:#000000;stroke-width:6.103;stroke-linecap:butt;stroke-linejoin:miter;stroke-opacity:1;stroke-miterlimit:4;stroke-dasharray:none"
     d="m 70.875,139.5625 -3.4375,8.75 13.4375,-6.375 14.75,-4.75 16.5625,-4.9375 16.875,-4.375 2.875,-0.6875 1.5625,-2.25 18.59375,2.3125"
     id="path1013" />
  <path
     style="fill:none;stroke:#000000;stroke-width:6.103;stroke-linecap:butt;stroke-linejoin:miter;stroke-opacity:1;stroke-miterlimit:4;stroke-dasharray:none"
     d="m 67,184 14.0625,-0.875 1.8125,-1.25 28.75,-5.9375 12.4375,-1.75 13.3125,-2.4375 14.375,-1.8125 10.3125,1.9375 10.3125,2.6875"
     id="path1015" />
</svg>
