<?xml version="1.0" encoding="UTF-8" standalone="no"?>
<svg
   version="1.1"
   viewBox="-10 0 266 256"
   id="svg1215"
   sodipodi:docname="jing.svg"
   inkscape:version="1.1 (c68e22c387, 2021-05-23)"
   xmlns:inkscape="http://www.inkscape.org/namespaces/inkscape"
   xmlns:sodipodi="http://sodipodi.sourceforge.net/DTD/sodipodi-0.dtd"
   xmlns="http://www.w3.org/2000/svg"
   xmlns:svg="http://www.w3.org/2000/svg">
  <defs
     id="defs1219" />
  <sodipodi:namedview
     id="namedview1217"
     pagecolor="#ffffff"
     bordercolor="#666666"
     borderopacity="1.0"
     inkscape:pageshadow="2"
     inkscape:pageopacity="0.0"
     inkscape:pagecheckerboard="0"
     showgrid="false"
     inkscape:zoom="1.625"
     inkscape:cx="65.538462"
     inkscape:cy="140"
     inkscape:window-width="1920"
     inkscape:window-height="1017"
     inkscape:window-x="-8"
     inkscape:window-y="-8"
     inkscape:window-maximized="1"
     inkscape:current-layer="svg1215" />
  <path
     style="fill:none;stroke:#000000;stroke-width:6.10199976;stroke-linecap:butt;stroke-linejoin:round;stroke-opacity:1;stroke-miterlimit:4;stroke-dasharray:none"
     d="m 70.615385,35.230769 7.461538,5.923077 11.076923,6.692308 L 79,42.769231 75.769231,42.076923 H 74.615385 L 73.538462,42.615385 73,43.923077"
     id="path1329" />
  <path
     style="fill:none;stroke:#000000;stroke-width:6.10281944;stroke-linecap:butt;stroke-linejoin:round;stroke-opacity:1;stroke-miterlimit:4;stroke-dasharray:none"
     d="m 30.65864,103.93854 2.665249,0.43515 6.989478,1.35982 7.152657,-1.44141 4.649361,-1.15748 29.423077,-16.365389 11.769228,-7.615385 1.46154,-3.923077 19.30769,3.538462"
     id="path1331" />
  <path
     style="fill:none;stroke:#000000;stroke-width:6.10281944;stroke-linecap:butt;stroke-linejoin:round;stroke-miterlimit:4;stroke-dasharray:none;stroke-opacity:1"
     d="m 51.923077,130.69231 13.538462,16.73077 -2.076923,-4.57693 9.461538,-21.38461"
     id="path1333" />
  <path
     style="fill:none;stroke:#000000;stroke-width:6.10281944;stroke-linecap:butt;stroke-linejoin:round;stroke-opacity:1;stroke-miterlimit:4;stroke-dasharray:none"
     d="m 94.16227,97.4386 2.88282,1.958142 4.46021,3.861888 -7.615,16.37224 -5.928814,13.27186 -7.125461,14.14213 -3.916284,6.20078 -3.589926,4.78657"
     id="path1448" />
  <path
     style="fill:none;stroke:#000000;stroke-width:6.10281944;stroke-linecap:butt;stroke-linejoin:round;stroke-opacity:1;stroke-miterlimit:4;stroke-dasharray:none"
     d="m 22.200555,196.75991 2.719641,1.35982 6.418354,-1.90375 18.547955,-10.17146 28.556236,-20.72367 37.857409,-36.82394"
     id="path1450" />
  <path
     style="fill:none;stroke:#000000;stroke-width:6.10281944;stroke-linecap:butt;stroke-linejoin:round;stroke-opacity:1;stroke-miterlimit:4;stroke-dasharray:none"
     d="m 126.03647,39.94538 6.30956,1.087856 17.5145,-0.870285 20.4517,-5.439283 13.16306,-5.167319 4.78657,-3.589927 14.74046,2.828428"
     id="path1452" />
  <path
     style="fill:none;stroke:#000000;stroke-width:6.10281944;stroke-linecap:butt;stroke-linejoin:round;stroke-opacity:1;stroke-miterlimit:4;stroke-dasharray:none"
     d="m 136.28951,69.358302 8.81164,-1.468606 16.10028,-5.697649 9.92669,-4.378623 9.49155,-4.242641"
     id="path1456" />
  <path
     style="fill:none;stroke:#000000;stroke-width:6.10281944;stroke-linecap:butt;stroke-linejoin:round;stroke-opacity:1;stroke-miterlimit:4;stroke-dasharray:none"
     d="m 100.23077,97.346154 1.53846,-0.5 3.73077,0.730769 6.34615,-0.346154 5.5,-0.730769 8.26923,-1.5 13.88462,-3.423077 12.38462,-3.692307 3.57692,-0.615385 8.88461,-2.423077 19.42308,-3.653846 34.07692,-5.038462 4,-2.923077 18.46154,5.307693"
     id="path1458" />
  <path
     style="fill:none;stroke:#000000;stroke-width:6.20461512;stroke-linecap:butt;stroke-linejoin:round;stroke-opacity:1;stroke-miterlimit:4;stroke-dasharray:none"
     d="m 148.77453,10.317544 5.15048,2.62556 5.30422,4.773746 4.84298,4.296371 0.61498,11.138739 v 7.399307 l -0.53811,17.981108 -1.92182,12.650426 -3.45927,17.742421"
     id="path1460" />
  <path
     style="fill:none;stroke:#000000;stroke-width:6.10281944;stroke-linecap:butt;stroke-linejoin:round;stroke-opacity:1;stroke-miterlimit:4;stroke-dasharray:none"
     d="m 136.5,99.192308 -1.76923,3.923082 0.23077,1.73076 c 0,0 1.57692,1.3077 2,1.46154 0.42308,0.15385 4.38461,2.15385 4.57692,2.23077 0.19231,0.0769 4.76923,1.69231 4.76923,1.69231 l 4.03846,1.26923 c 0,0 1.57693,0.26923 1.11539,0.80769 -0.46154,0.53846 -1.23077,9.73077 -1.23077,9.73077 l -0.34615,19.03846 0.15384,9.07693 -0.30769,9.6923 -0.57692,8.3077 -0.73077,10.76923 -1.07693,9.15384 -1.34615,9.5 -3.42308,15.46154 -3.92307,11.30769 -3.76923,7.46154 -4.11539,6.07693 -3.69231,3.65384 -4.73077,4.07692"
     id="path1462" />
  <path
     style="fill:none;stroke:#000000;stroke-width:6.10281944;stroke-linecap:butt;stroke-linejoin:round;stroke-opacity:1;stroke-miterlimit:4;stroke-dasharray:none"
     d="m 156.61538,103.23077 1.41347,-1.02885 c 0,0 1.5673,0.0481 1.61538,0.0577 0.0481,0.01 4.375,-1.25961 4.375,-1.25961 L 170.75,98.115385 c 0,0 2.48077,-1.961539 4.88462,0.326923 2.40384,2.288462 7.23077,6.961542 7.23077,6.961542 l 4.25,2.6923 c 0,0 0.53846,0.32693 0.32692,0.53847 -0.21154,0.21153 -2,1.88461 -2,1.88461 l -4.96154,4.46154 -0.75858,6.71703 -0.19038,6.60873 -0.40794,7.34303 -0.27197,7.91416 -0.32635,8.73005 0.16318,8.51248 0.40794,8.56687 0.40795,8.26771 0.27196,6.60873 0.87029,10.52501 0.89748,7.99574 0.92468,6.25518 1.44141,7.01667 1.06066,4.18825 1.74057,6.8535 1.95814,8.24051 2.06693,6.74471 0.32635,1.71338 -9.87229,-14.90364 -5.84723,-8.45808 -6.03761,-9.70912 -0.92468,-1.32583 -3.34282,-6.77045 -1.53846,-3.38462"
     id="path1466" />
  <path
     style="fill:none;stroke:#000000;stroke-width:6.10281944;stroke-linecap:butt;stroke-linejoin:round;stroke-opacity:1;stroke-miterlimit:4;stroke-dasharray:none"
     d="M 150.38462,143.80769 155,142.11538 l 8.92308,-2.57692 11,-2.96154 3.88461,-0.84615"
     id="path1468" />
  <path
     style="fill:none;stroke:#000000;stroke-width:6.10281944;stroke-linecap:butt;stroke-linejoin:round;stroke-opacity:1;stroke-miterlimit:4;stroke-dasharray:none"
     d="m 149.80613,165.53842 2.33889,1.08786 6.03761,1.03346 9.24678,-1.74057 8.15892,-2.88282 3.046,-1.19664"
     id="path1470" />
</svg>
