<?xml version="1.0" standalone="no"?>
<!DOCTYPE svg PUBLIC "-//W3C//DTD SVG 1.1//EN" "http://www.w3.org/Graphics/SVG/1.1/DTD/svg11.dtd" >
<svg xmlns="http://www.w3.org/2000/svg" xmlns:xlink="http://www.w3.org/1999/xlink" version="1.1" viewBox="-10 0 267 256">
   <path fill="currentColor"
d="M151 87q15 10 11 11q-3 5 -3 16q3 -1 12 -3q16 -4 19 -5q4 -5 8 -4q14 3 20 7q1 2 -1 3q-1 1 -3 0q-11 -5 -55 7v16q19 32 38 53q5 6 14 7q22 3 35 9q2 0 0 0h-7q-17 -1 -28 -1q-9 0 -16 -11q-21 -23 -36 -48q-2 40 1 66q1 9 5 18q0 4 -6 4q-3 -2 -5 -7q-1 -6 -7 -14
q-4 -5 -9 -13q-2 -5 2 -1l7 7q4 5 6 7q1 1 2 1q1 -1 1 -3q0 -8 -1 -19q-1 -19 0 -46q-21 42 -48 58q-5 2 -1 -2q28 -20 47 -64q-2 -2 -4 -8q-2 -3 -3 -4q-2 0 -10 4q-10 5 -21 2q-2 -1 1 -2q11 -2 30 -9q5 -2 7 -3q0 -22 -3 -27q-2 -5 1 -2zM146 -5q-3 -4 2 -1q20 13 15 19
q-5 8 -11 19q33 -5 37 -9l1 -1q1 -5 5 -3q5 1 13 5q5 2 8 3q3 2 2 4t-4 1q-19 -4 -65 6q-12 18 -29 25q-5 2 -1 -1q14 -9 21 -23q-9 1 -28 4q-12 2 -15 2q2 4 3 10q2 7 -3 7q-8 0 -13 -14q-14 4 -36 -2q-5 -2 1 -2q16 2 33 -3q-3 -11 -7 -21q0 1 -1 -2q-1 -2 -1 -3q1 -1 3 0
l3 3q13 14 15 21q32 -3 48 -6q8 -14 11 -25q2 -4 -7 -13zM68 163l8 -5q1 -3 1 -17q-11 3 -15 3q-4 1 -1 -1q9 -3 16 -6q0 -2 -1 -5q0 -10 -2 -12q-7 2 -14 2q-4 -2 0 -2q7 -2 16 -6q10 -4 22 -7q6 -2 11 3q3 3 8 7l3 3q2 4 -1 5q-6 2 -7 9q-3 18 -10 29q-3 11 -18 3
q-2 -1 -2 -2q1 -1 3 -1q9 3 14 -4q9 -20 7 -38q-2 -10 -6 -9q-13 1 -23 6q8 8 6 8v8h1q5 -2 9 -1q4 0 2 4q-2 0 -6 1h-4q-2 1 -3 4l-1 1v13q6 -4 12 -3q1 0 2 1q0 2 -1 2t-4 2q-19 7 -21 7q0 5 -3 4t-6 -4q0 -1 -5 -1q-4 -1 -3 -6q2 -3 1 -6q-3 -5 -4 -14q0 -11 -2 -14
q-2 -5 9 -13q6 -5 17 -12q9 -6 14 -10q3 -3 -1 -2q-2 0 -4 1h-3t-1 -1t1 -2q12 -4 18 -7q4 -4 8 -2q2 0 5 2q3 1 4 2q2 1 2 3q-1 2 -3 2q-9 0 -25 9q-4 3 -13 8q-11 6 -18 11t-7 10q1 26 18 40zM172 59q3 3 6 3q6 3 8 5q3 1 1 2q-2 2 -6 1q-2 -2 -14 3q-27 12 -43 15
q-1 1 0 -1q20 -7 38 -19q8 -4 4 -7q1 -3 6 -2zM77 68q7 6 1 10q-22 24 -35 31q-3 2 -4 1q0 -1 3 -4q15 -11 28 -27q4 -5 5 -11q0 -3 2 0zM39 195q3 9 8 9h3v2q0 3 2 6q2 2 1 3q0 1 -3 2q-3 0 -6 -3l-2 -2q-5 -8 -5 -17q0 -5 2 0zM80 177q-1 -3 0 -1q13 8 13 14q2 4 -2 6
q-6 -2 -11 -19zM61 184q6 1 11 14q2 5 -1 5q-6 0 -10 -17q-1 -4 0 -2zM101 171q9 7 15 14q1 5 -2 6q-4 -1 -7 -7q-1 -6 -7 -11q-2 -4 1 -2z" />
</svg>
