<?xml version="1.0" standalone="no"?>
<!DOCTYPE svg PUBLIC "-//W3C//DTD SVG 1.1//EN" "http://www.w3.org/Graphics/SVG/1.1/DTD/svg11.dtd" >
<svg xmlns="http://www.w3.org/2000/svg" xmlns:xlink="http://www.w3.org/1999/xlink" version="1.1" viewBox="-10 0 266 256">
   <path fill="currentColor"
d="M88 23q8 3 16 19q1 1 0 3q1 -2 -1 1q-3 3 -7 10q-1 3 -2 4q1 6 -2 11q0 1 -1 4q-4 10 -5 19q-5 54 -3 93q0 12 12 17q11 8 14 13q3 3 -1 5q-4 4 -6 2q-4 -3 -7 -6q-12 -14 -20 -14h-1q-6 -1 -5 -3q-3 -4 11 -8q-2 -56 0 -114q-30 42 -61 69q-5 4 -2 -2q44 -45 69 -92
q10 -19 1 -28q-1 -1 -1 -3q1 -1 2 0zM163 17q3 4 8 7q4 3 2 6q-4 1 -11 47q21 -4 40 -7q7 -1 8 -4q3 -4 9 -1h2q9 3 14 3q7 3 2 7q-4 1 -13 -2q-2 -1 -3 -1q-3 -2 -11 0h-2q-11 2 -36 7q-7 1 -11 2q-21 71 -65 110q-8 5 -2 -2q45 -45 60 -106q-6 1 -23 5q-5 1 -7 2
q-8 3 -21 -1q-3 -1 0 -2q25 -2 52 -8q3 -16 6 -36q1 -4 1 -6q1 -10 -1 -18q-2 -5 2 -2zM190 149q7 -3 15 1q4 3 8 5q2 0 3 1q4 1 4 4q-1 2 -5 2q-8 1 -10 7q-7 9 -16 18q19 -3 26 1q3 4 -3 6q-4 2 -15 -1q-3 -3 -27 2q-5 2 -5 -5q-1 -3 0 -4t4 0q2 1 11 1q13 -8 17 -26
q2 -5 0 -7q-2 -1 -8 1q-24 9 -34 7q-4 0 0 -2q11 -3 24 -7q8 -1 11 -4zM164 196q3 2 0 8q-2 1 -5 0q-4 -4 -14 -12q-7 -4 -3 -8q1 -1 0 -3v-3q-2 -5 -2 -13q0 -4 2 -1q8 27 22 32z" />
</svg>
